# 3ds Max Wavefront OBJ Exporter v0.97b - (c)2007 guruware
# File Created: 28.08.2018 19:39:52

#
# object Stone_10
#

v  -80.7419 50.2799 56.1466
v  -87.8369 100.5125 78.9925
v  -69.7683 74.8286 126.5763
v  84.4297 16.6969 438.8035
v  174.8672 47.3946 420.3092
v  102.4510 36.4210 383.3680
v  -34.8136 50.2326 -60.0695
v  -68.1128 22.1837 -49.9946
v  -0.1900 7.9464 -3.1203
v  90.9098 69.1053 15.9416
v  88.4975 29.5152 -33.6288
v  39.8731 11.1155 1.7989
v  197.5712 -11.8250 477.2112
v  220.2279 -23.9811 411.2276
v  218.3359 18.0213 80.2696
v  275.2852 37.1778 38.5037
v  232.7624 -7.9937 40.7268
v  15.6082 20.7647 -135.2765
v  45.9275 -13.9062 -146.5812
v  37.1770 18.5416 -177.1843
v  -263.5091 10.0276 -61.5831
v  -284.5103 6.3382 -47.0147
v  -284.3684 7.2842 -47.5823
v  112.5732 34.9074 311.0462
v  169.9007 0.5203 277.9835
v  151.5483 -1.1825 270.6047
v  199.1321 26.5826 322.4456
v  -284.6049 5.2030 -46.5417
v  -284.8887 6.5274 -47.1566
v  -284.9833 4.0205 -46.0687
v  -284.4630 4.2097 -46.0687
v  -272.0704 21.7107 -1.1337
v  -287.5848 -17.4064 -42.3320
v  -279.8276 -16.0820 1.3259
v  156.1837 -22.5148 304.2823
v  182.7190 -15.7036 307.4042
v  77.4293 -18.5416 312.9382
v  83.5310 4.2570 300.7349
v  117.5397 -10.1695 276.7064
v  167.4884 -34.4344 189.6272
v  172.9752 40.6780 186.5054
v  177.2795 -29.6098 156.8483
v  101.0320 -22.1364 -192.9352
v  72.3682 15.7982 -204.2399
v  -15.2314 23.4135 -237.7756
v  -13.2448 33.6776 -113.5185
v  15.5609 -2.6961 -70.5228
v  -10.3122 -23.1297 -125.8638
v  121.5602 -16.2239 308.3502
v  214.0789 -26.1096 373.4823
v  204.5716 -5.6287 292.1735
v  185.3205 -26.2515 51.2274
v  183.6650 30.3666 63.6200
v  179.3134 -18.3051 69.8163
v  161.6232 -10.2168 52.9302
v  273.2985 16.4131 24.0299
v  272.8728 -26.7245 25.9692
v  215.5452 -39.5428 233.0013
v  188.8207 48.4352 229.8322
v  149.1833 -16.2239 220.4668
v  170.0899 -28.5692 352.1499
v  169.8061 -21.2850 -89.1117
v  272.2580 -43.3741 -78.4692
v  272.4944 -15.7982 -36.9871
v  -2.7442 -24.1230 87.5538
v  54.2996 -43.6579 128.2791
v  -31.0769 -27.9070 110.8254
v  17.6894 -25.9677 219.9937
v  -39.2125 -24.7379 -160.6293
v  2.7899 -19.4403 -186.9281
v  11.7296 -20.5755 -131.5871
v  39.4474 -16.1766 2.5557
v  71.6587 -17.2172 -37.0344
v  105.0052 -42.5227 -9.2220
v  153.9606 -22.0891 -195.0637
v  256.1759 -34.3398 -222.5923
v  218.6197 -40.2050 -189.9553
v  147.2440 -41.9551 396.4228
v  88.7813 -30.3666 434.5465
v  120.3777 -43.9890 335.4531
v  20.1017 -34.8601 -262.5135
v  85.7068 -33.9141 -219.4232
v  -25.4009 -23.0824 -244.4922
v  -96.6347 -63.9969 83.4387
v  -214.1752 -63.6185 150.0371
v  -160.6316 -85.1873 75.9180
v  -262.7523 -14.9941 -64.4211
v  -227.2300 -23.3189 -54.4881
v  -229.1693 24.5960 -51.6974
v  -270.4149 29.6571 -98.9501
v  -187.1669 82.0182 -264.5474
v  -167.3482 40.9618 -286.7784
v  -207.4586 46.4486 -281.6227
v  -139.9142 46.2594 -119.7148
v  -153.7731 74.8286 -140.5268
v  -190.0522 39.2117 -77.6651
v  -194.0727 101.4112 -230.8225
v  -234.0885 63.3347 -259.8174
v  -230.4937 84.6670 -224.2951
v  -165.5035 95.8298 -162.9470
v  -219.3782 88.5929 -180.7318
v  -246.1027 54.8680 -126.8571
v  -280.7736 -51.1313 -122.8839
v  -255.9411 -63.5712 -227.9372
v  -229.0747 -60.1656 -118.2012
v  -127.1432 13.8116 -231.8158
v  -135.0423 -18.9200 -168.9541
v  -132.0151 -65.4159 -207.3144
v  -320.8367 -22.6567 -121.9852
v  -323.2963 23.5554 -126.9044
v  -350.0681 4.9665 -195.6786
v  -298.6057 -49.1447 -178.7925
v  -95.3576 26.5353 156.8956
v  -134.5220 -25.6366 187.7352
v  -88.8302 -56.6654 131.9685
v  -67.0249 -24.0757 128.2791
v  -252.3463 0.8041 38.8821
v  -213.6076 58.0844 39.4497
v  -168.1050 32.1167 4.0220
v  -151.0770 74.4502 123.7383
v  -158.7869 94.9311 90.7702
v  -214.6009 56.6654 149.5641
v  -257.7858 39.4955 -21.6619
v  -302.7208 -38.5495 151.9764
v  -341.2703 -21.6161 135.4214
v  -275.0503 -46.6378 87.6484
v  -237.2103 67.3552 145.1179
v  -144.5496 -40.4415 -117.3025
v  -168.2469 -66.3619 -149.4665
v  -185.0384 -24.0757 -67.8740
v  -136.9343 -21.5688 -115.9781
v  -180.9233 -43.7998 0.9002
v  -207.1748 -72.8893 58.1332
v  -315.8702 -17.8321 80.2223
v  -90.8168 -70.3351 63.2416
v  -163.4696 -76.6260 49.1462
v  -99.8984 -21.9945 33.1115
v  354.9383 47.5365 -64.1373
v  430.8548 10.0749 -78.5638
v  372.9123 64.3753 -164.1295
v  283.9410 63.9969 -80.4558
v  252.8176 16.7915 -53.5421
v  352.8571 16.8388 -13.1479
v  279.0219 19.4876 -248.1343
v  215.2141 30.7450 -198.9896
v  325.4232 70.4770 -152.9194
v  272.8728 67.5917 -103.1125
v  197.2874 39.2117 -120.2351
v  -337.2025 17.3591 183.6201
v  -291.4161 -22.3256 199.7966
v  -296.8556 14.8049 196.4857
v  -167.2536 -38.6914 190.9516
v  358.4385 -18.6835 -13.6209
v  427.8276 -27.4340 -128.9383
v  445.6124 -19.9606 -85.5642
v  348.9785 -35.7588 -210.0105
v  285.6439 -22.4675 -244.0665
v  341.6470 -7.7099 -234.4646
v  72.9831 -11.8723 365.5359
v  335.7345 45.0296 -72.7932
v  -143.4617 -59.0304 -250.9723
v  -158.6450 -31.1707 -290.2786
v  -274.1043 -10.0276 -317.5233
v  -202.9178 -19.0619 -315.8679
v  -256.6506 -41.7186 -268.2841
v  431.6116 25.1163 -111.8157
v  430.5237 8.2302 -168.4338
v  433.5509 -14.0954 -169.7109
v  -204.9044 -70.0040 -249.5533
v  -195.3498 -79.0856 -217.1055
v  369.7432 -48.1041 -123.7353
v  293.9687 -49.1447 -72.4148
v  303.9489 -42.5227 -189.4823
v  79.1321 15.3252 248.4684
v  102.9713 -19.5822 205.5200
v  107.2282 53.5909 181.1604
v  47.1100 21.9945 237.8732
v  63.1920 51.2259 169.2882
v  25.0682 16.8388 216.9193
v  145.7777 59.5507 162.0986
v  143.8857 -42.4754 160.3958
v  165.1707 -4.4935 142.0434
v  72.6047 -8.9870 50.2341
v  19.4395 30.6504 92.2838
v  60.3540 47.9149 64.0930
v  -40.3950 -14.3792 111.2511
v  4.9657 17.5483 86.7970
v  -46.2129 19.5822 162.4770
v  -52.1254 -24.1703 250.6914
v  -76.3430 -8.5140 237.5421
v  -15.8463 -34.9547 202.1617
v  -6.1025 21.8526 264.1246
v  32.3997 -4.9665 256.3674
v  -262.9415 71.9433 -182.1981
v  -268.0972 42.0024 -266.7232
v  -325.7559 32.4951 -186.9754
v  -337.1552 -29.4206 -221.3152
v  -285.3617 -22.6567 -311.0906
v  -116.4534 16.3185 23.8880
v  -137.7384 21.6634 4.1639
v  -157.9828 88.3091 46.4501
v  -123.1227 -33.9141 18.5904
v  49.5223 -30.7923 242.0355
v  83.5310 -38.2657 221.8858
v  78.2807 -14.5684 254.7593
v  -21.9953 -10.1222 322.7293
v  32.5416 -26.3934 318.8980
v  3.3575 13.2913 318.6615
v  -298.3692 20.8120 172.5519
v  -270.2730 61.5846 146.3950
v  -318.8501 30.6977 145.9693
v  -175.0108 105.8101 64.0457
v  -254.3802 59.2196 69.2487
v  -310.2415 14.2846 74.1679
v  -340.5135 13.2440 139.1581
v  -209.3033 -60.2129 -94.2674
v  185.1786 -61.2062 195.7289
v  186.2665 -67.5444 157.4159
v  195.8211 24.9271 145.0233
v  184.3745 101.3166 158.1727
v  239.0533 36.1372 132.8672
v  65.4624 -16.2239 -329.2065
v  95.4506 -17.3591 -282.0484
v  96.1601 14.0008 -286.7310
v  38.3595 11.9196 -333.8892
v  32.8727 48.1041 -276.1359
v  250.8783 59.4088 193.5531
v  252.1081 -32.5424 197.0060
v  262.0411 44.7458 164.9366
v  261.3790 -38.2184 168.0110
v  241.2291 -22.6094 131.1171
v  158.0757 52.1246 209.6351
v  235.1747 83.6737 184.8026
v  -8.6567 7.0950 -312.7461
v  80.5984 40.3942 -231.1063
v  -143.9820 102.0734 -189.2931
v  -159.1653 92.3769 -247.3775
v  -132.3462 71.3284 -230.3968
v  127.0943 -16.8388 -260.6215
v  110.3501 15.3252 -193.7393
v  224.3430 -63.6658 206.2294
v  228.5054 -1.9393 231.2038
v  374.0948 14.9941 -27.2433
v  -78.6134 -33.8195 81.1210
v  -282.4291 -2.4596 -73.2662
v  166.3532 19.9606 -94.8823
v  133.5270 1.2771 -167.2040
v  -175.4838 -7.1423 -3.1676
v  -269.8473 8.9870 317.3845
v  -275.3814 8.2302 271.7399
v  -267.5769 -16.8861 319.1345
v  -146.3470 37.4616 186.5527
v  -269.8473 -2.4123 217.2504
v  -267.1985 -50.3272 195.1140
v  -218.4322 -33.5357 204.9051
v  393.4878 -38.0765 -175.2923
v  377.4058 -20.2917 -210.8146
v  365.8647 20.7647 -221.3152
v  -50.0442 16.6023 269.8480
v  -20.3871 8.6559 207.0336
v  -44.3682 29.3260 256.1782
v  201.0714 5.6287 -249.9317
v  201.6390 -15.7036 -259.1552
v  111.2015 10.1695 102.2641
v  80.2673 51.9827 78.7560
v  91.5247 55.9086 116.0757
v  -145.1645 -6.1963 289.8085
v  -179.2205 -34.3398 312.8436
v  -227.6557 -30.9815 264.5031
v  -186.5520 22.1364 333.7029
v  201.7809 32.2586 393.7267
v  204.7608 -33.1573 -158.5481
v  140.7166 -14.5211 -120.5189
v  -226.8989 -20.3390 11.0224
v  -225.8110 7.9937 5.3464
v  185.7462 101.5531 185.9378
v  221.1739 86.1806 213.7502
v  106.6607 -12.9129 98.5747
v  142.6086 -22.4675 83.6752
v  144.9263 -43.8471 132.6780
v  124.3036 43.4687 135.2322
v  139.2504 22.7040 85.0469
v  94.0316 -46.6378 119.8597
v  71.5641 -41.8132 68.1608
v  91.5720 -6.1017 61.9172
v  -63.9031 26.2988 198.8980
v  -83.2488 -5.3449 174.1601
v  -190.4306 -15.3725 359.1504
v  -138.4479 1.4190 334.1286
v  140.9058 41.9551 150.2263
v  154.8120 56.7127 128.0899
v  174.1577 -42.9957 421.5863
v  140.7639 -8.4667 502.3747
v  -238.7239 -41.9551 -9.7896
v  -208.0735 -31.3599 -32.5882
v  -209.3033 22.7040 -30.6489
v  2.5534 13.7643 154.3887
v  175.1510 -33.1100 126.2925
v  168.3398 18.9200 88.9255
v  179.0296 16.6969 131.7320
v  170.2318 -18.0686 89.2566
v  68.4896 -13.0548 457.2978
v  -15.5625 -15.8928 -302.7185
v  21.7572 -18.6362 -334.7879
v  -30.8877 12.6764 -270.7910
v  -233.8993 53.4490 -78.7530
v  -277.7937 66.4565 -137.4996
v  218.5251 -23.3662 80.9791
v  252.4865 -17.8321 115.8392
v  310.6655 17.5010 33.8683
v  267.4333 45.5499 88.8782
v  -262.3739 18.0686 -304.2321
v  -201.0731 8.9870 -319.4154
v  -334.9794 8.6086 -257.7835
v  -6.1971 -33.3938 247.6642
v  -28.2862 -43.5160 260.4825
v  8.2294 -29.7990 286.4030
v  275.7108 14.5211 116.3595
v  308.2059 -15.5617 71.3299
v  270.6971 -36.4683 76.4856
v  -344.8651 -7.2842 -250.7358
v  308.6789 -18.0213 19.3472
v  -33.5838 -26.4407 292.9777
v  -40.3004 -4.3516 298.9847
v  -345.1016 -16.2239 180.1199
v  229.9244 -43.8471 142.6110
v  182.7190 -42.3335 367.0967
v  214.2208 15.7036 118.2515
v  196.2941 -22.0418 147.5775
v  -185.6060 16.6969 273.1116
v  -233.0006 -7.0950 229.8322
v  234.6071 32.2113 101.9330
v  -69.5318 11.2101 -96.3486
v  -37.6989 22.8932 -122.1271
v  14.0000 -24.8798 -45.4538
v  -31.4553 -28.9949 -72.0364
v  -62.7206 -11.6831 -71.1850
v  -61.4908 -1.9866 -45.7376
v  106.5661 -41.6713 175.6737
v  3.8778 29.7044 -45.3119
v  -35.0974 47.9149 -101.3151
v  -67.8763 42.6646 -73.3135
v  -228.0814 36.2791 -12.9114
v  34.9539 -4.3516 -24.6891
v  4.4454 -11.5412 -4.0190
v  -52.8349 -25.7312 149.4695
v  -279.4019 36.5629 192.8436
v  -236.6427 31.9748 207.7431
v  -208.6884 -12.1561 227.6563
v  -193.0321 26.1096 208.2160
v  -266.2525 -22.9405 276.7064
v  -118.4400 85.5657 132.2996
v  -140.0561 8.4194 -114.0388
v  124.1143 15.2779 -254.2360
v  -101.5066 97.2488 64.1403
v  44.9342 6.7166 293.5925
v  105.5255 28.6165 353.3797
v  310.5709 16.8861 61.0185
v  35.3796 -20.3390 -185.9348
v  -14.0962 25.4474 -175.0085
v  -24.2657 16.7915 -143.1283
v  3.4994 17.7375 -187.4011
v  -31.0296 19.2984 254.6173
v  113.6611 -21.0958 -40.6765
v  71.1384 29.9409 22.0906
v  90.6733 -10.6425 39.3078
v  105.0998 42.2389 337.0612
v  -82.6339 85.4238 103.4939
v  118.4384 31.3599 10.3602
v  123.5940 -29.2314 10.5967
v  121.4183 14.8995 -33.6288
v  115.1747 46.8743 -7.3773
v  346.7554 44.9350 -207.4563
v  -110.1625 -12.5818 -100.2745
v  -134.0017 13.7643 -170.5150
v  -96.2090 -21.5215 -116.1200
v  -109.0273 14.2846 -151.5477
v  -135.3734 25.6839 -137.7834
v  -94.9319 14.4738 -114.9848
v  -17.3126 29.5152 305.1810
v  -103.0675 -16.9807 -154.5276
v  -278.5978 -56.3816 146.0166
v  292.0766 -56.6181 -131.9182
v  216.2074 -43.3268 -119.5256
v  -114.7506 12.8183 -103.1125
v  342.4984 -54.6315 -168.5757
v  -206.3707 46.6378 183.9039
v  -167.0171 76.1057 145.5909
v  73.6926 -29.3733 22.2325
v  87.1258 44.1309 -209.9159
v  -207.0329 61.4427 -118.7215
v  -203.6746 55.2937 -134.2359
v  23.1289 -30.8396 85.9929
v  -185.5114 74.8286 30.3681
v  215.3560 -19.2038 120.6165
v  -225.5745 33.4884 -270.9802
v  -237.2103 63.3820 -194.1650
v  31.5483 -44.8877 251.2117
v  -212.4251 8.3248 354.4203
v  -276.0436 29.5625 52.9302
v  176.0024 66.2673 210.1553
v  175.3875 19.6295 39.3551
v  159.0217 19.1565 61.1604
# 403 vertices

vn 0.8816 0.4555 0.1238
vn 0.6142 0.0729 0.7858
vn 0.9365 -0.2344 0.2607
vn -0.4953 -0.3400 0.7994
vn 0.2165 -0.2605 0.9409
vn -0.4722 0.0122 0.8814
vn -0.0334 -0.4041 0.9141
vn -0.6777 -0.6367 0.3677
vn -0.0562 -0.8597 0.5078
vn -0.2522 -0.1162 0.9607
vn -0.3648 0.7698 0.5238
vn -0.8486 0.3010 0.4350
vn 0.5783 -0.4662 0.6695
vn 0.8884 -0.1297 0.4403
vn -0.8772 0.0649 0.4757
vn -0.0905 0.4402 0.8933
vn -0.7207 0.5497 0.4225
vn 0.2461 -0.7096 0.6602
vn 0.8591 -0.4227 0.2886
vn 0.6508 0.3079 0.6940
vn -0.6040 0.0107 0.7969
vn -0.4957 0.8070 -0.3209
vn -0.4658 0.4903 0.7366
vn -0.0305 0.4189 0.9075
vn 0.1911 0.5863 0.7872
vn -0.0538 0.6935 0.7184
vn 0.5228 0.2257 0.8220
vn -0.4621 0.7979 -0.3872
vn -0.9365 -0.1579 0.3130
vn 0.7274 0.6552 -0.2038
vn -0.5764 0.8143 -0.0679
vn -0.5332 -0.6798 0.5035
vn -0.9853 0.0719 0.1549
vn -0.6630 -0.7258 0.1835
vn 0.0349 0.2739 -0.9611
vn 0.2138 0.5346 -0.8176
vn 0.2360 0.3341 -0.9125
vn -0.9136 0.1856 0.3617
vn -0.7749 0.5105 0.3727
vn -0.3434 0.8009 0.4906
vn -0.9164 0.3976 0.0457
vn -0.9395 0.3316 0.0861
vn -0.9305 0.3619 0.0561
vn 0.1738 0.5439 -0.8210
vn 0.2532 -0.9592 -0.1259
vn -0.3241 -0.8907 0.3187
vn -0.5027 -0.7463 0.4362
vn 0.7058 0.5000 0.5019
vn 0.8685 0.3212 0.3775
vn 0.8019 0.5738 0.1666
vn 0.0064 0.3211 -0.9470
vn 0.0202 0.4183 -0.9081
vn -0.3651 0.1706 -0.9152
vn 0.9680 0.0901 0.2343
vn 0.8143 0.3475 0.4648
vn 0.7565 0.4312 -0.4917
vn 0.6957 -0.4409 0.5671
vn 0.3958 -0.8550 -0.3351
vn -0.8240 0.3854 -0.4153
vn 0.2602 0.0540 -0.9640
vn 0.1828 0.3468 -0.9200
vn -0.5034 0.6572 -0.5609
vn -0.2864 0.9572 -0.0407
vn -0.1825 0.6551 -0.7331
vn -0.1496 -0.9887 -0.0099
vn -0.1261 -0.9698 0.2090
vn -0.7549 -0.6553 0.0274
vn 0.2505 0.4574 -0.8533
vn -0.2951 -0.2872 -0.9113
vn -0.1715 -0.3560 -0.9186
vn -0.2171 -0.5731 -0.7902
vn -0.1351 0.2680 -0.9539
vn -0.1474 -0.0712 -0.9865
vn -0.1453 -0.0225 -0.9891
vn -0.0913 -0.0022 -0.9958
vn 0.1023 0.0367 -0.9941
vn 0.0440 0.0274 -0.9987
vn 0.1072 -0.0029 -0.9942
vn -0.8392 -0.1854 -0.5112
vn -0.4967 0.7856 -0.3689
vn 0.0383 0.1478 -0.9883
vn -0.2276 0.0799 -0.9705
vn -0.0557 0.3216 -0.9452
vn -0.1435 0.0954 -0.9850
vn -0.0429 -0.0648 -0.9970
vn -0.3161 -0.2041 -0.9265
vn -0.1707 0.2282 -0.9585
vn -0.0700 0.0770 -0.9946
vn 0.0759 -0.1434 -0.9867
vn -0.2482 -0.0192 -0.9685
vn 0.3209 -0.2365 -0.9171
vn 0.0174 -0.3105 -0.9504
vn 0.0760 -0.1889 -0.9790
vn -0.3177 0.1940 -0.9281
vn -0.3615 -0.3781 -0.8523
vn -0.1538 -0.1860 -0.9704
vn 0.3039 -0.4929 0.8153
vn -0.5126 -0.7316 0.4495
vn -0.0793 0.7240 0.6852
vn 0.6276 0.7244 0.2854
vn -0.2795 0.7873 0.5496
vn 0.8258 -0.4643 0.3201
vn 0.2551 -0.5947 0.7624
vn 0.4708 -0.7386 0.4826
vn -0.1781 0.1359 0.9746
vn -0.4255 0.5135 0.7452
vn -0.7047 0.1331 0.6969
vn -0.0725 -0.4389 0.8956
vn -0.3131 -0.2618 0.9129
vn 0.0014 -0.2426 0.9701
vn -0.3221 -0.3014 -0.8974
vn -0.2891 0.1122 -0.9507
vn -0.1817 -0.2127 -0.9601
vn 0.9890 0.1279 -0.0739
vn 0.9878 0.0451 -0.1491
vn 0.7671 0.0129 -0.6414
vn -0.7784 -0.4425 -0.4454
vn -0.8846 -0.4664 0.0026
vn -0.9136 -0.1955 -0.3565
vn -0.4139 -0.0039 -0.9103
vn 0.6357 -0.7696 -0.0609
vn 0.4937 -0.8398 -0.2258
vn 0.4196 -0.3991 -0.8153
vn 1.0000 0.0074 0.0028
vn -0.5023 0.8629 0.0548
vn -0.4670 0.7518 0.4654
vn -0.1847 0.9353 0.3020
vn -0.0680 -0.4373 0.8968
vn 0.0334 -0.3563 0.9338
vn 0.0402 -0.4723 0.8805
vn -0.2831 -0.0457 0.9580
vn -0.4196 -0.1210 -0.8996
vn -0.4370 0.0689 -0.8968
vn -0.4581 0.2467 -0.8540
vn -0.0704 -0.4322 0.8990
vn 0.5923 -0.3813 -0.7098
vn 0.2273 -0.2367 -0.9446
vn 0.6048 -0.7877 0.1172
vn 0.5457 -0.8378 -0.0180
vn -0.1948 0.6064 -0.7709
vn -0.3743 0.3604 -0.8544
vn -0.4974 0.4045 -0.7674
vn 0.5015 0.5845 -0.6378
vn 0.0995 0.5631 -0.8204
vn 0.4796 0.7265 -0.4922
vn 0.3115 -0.3298 0.8912
vn 0.5970 -0.4201 0.6834
vn 0.4393 0.1334 0.8884
vn -0.2050 -0.5674 0.7975
vn -0.3427 -0.7740 0.5325
vn -0.0807 -0.8670 0.4917
vn -0.0629 0.7482 0.6605
vn -0.2845 0.2982 0.9111
vn -0.0438 0.1318 0.9903
vn -0.2038 -0.1151 0.9722
vn -0.3865 0.0658 0.9199
vn -0.6171 -0.6303 0.4710
vn -0.4360 -0.8999 -0.0000
vn -0.4254 -0.8210 0.3808
vn 0.2250 -0.6641 -0.7130
vn 0.1520 -0.3263 -0.9330
vn 0.3647 -0.0860 -0.9271
vn 0.1204 -0.1202 -0.9854
vn 0.2192 0.5157 -0.8283
vn 0.1224 0.7584 -0.6402
vn 0.2830 0.7821 -0.5552
vn -0.5872 0.0444 -0.8082
vn -0.8365 0.1083 0.5372
vn 0.1479 -0.2954 0.9438
vn 0.6844 0.4518 -0.5723
vn 0.4612 0.6413 -0.6132
vn -0.1314 0.7159 -0.6857
vn 0.0459 0.7705 -0.6358
vn -0.2501 0.4031 -0.8803
vn 0.7472 -0.0311 0.6638
vn 0.7348 0.4299 0.5247
vn 0.5367 0.2965 -0.7899
vn -0.0943 0.3544 -0.9303
vn -0.1141 0.0241 -0.9932
vn 0.2572 -0.1943 -0.9466
vn -0.0014 -0.3007 -0.9537
vn -0.0787 0.2482 -0.9655
vn 0.6459 -0.5532 0.5261
vn 0.7927 -0.6077 0.0478
vn 0.2622 -0.5526 0.7911
vn -0.2508 -0.3770 0.8916
vn -0.3357 -0.1570 0.9288
vn -0.2880 -0.1393 0.9474
vn 0.5998 -0.6200 0.5059
vn 0.7240 -0.6894 -0.0247
vn 0.6773 -0.7356 0.0144
vn -0.3620 0.9221 0.1365
vn -0.5979 0.3322 0.7295
vn -0.3728 0.5790 0.7251
vn -0.7227 0.5857 0.3670
vn -0.4087 0.6332 0.6573
vn -0.3598 0.9325 0.0312
vn -0.2561 0.2641 0.9299
vn -0.5418 0.1225 -0.8316
vn -0.3968 -0.0067 -0.9179
vn -0.0984 0.1149 -0.9885
vn 0.0801 0.0209 0.9966
vn 0.0666 -0.0513 0.9965
vn -0.4020 0.0961 0.9106
vn -0.3943 0.3909 0.8317
vn -0.5974 0.1078 0.7946
vn -0.5693 0.1115 -0.8145
vn -0.3788 0.5439 -0.7488
vn 0.5436 0.7845 0.2984
vn 0.3719 0.8943 0.2489
vn 0.1284 0.7311 0.6701
vn 0.4578 0.4595 -0.7611
vn 0.2198 -0.1404 -0.9654
vn 0.1433 -0.2065 -0.9679
vn 0.4406 -0.3102 -0.8424
vn -0.3579 -0.9137 0.1925
vn 0.5271 -0.8120 0.2506
vn 0.2663 -0.6860 0.6771
vn -0.3730 -0.3405 0.8631
vn -0.4852 -0.0793 0.8708
vn -0.4382 -0.2220 0.8710
vn -0.2201 0.1096 0.9693
vn -0.5533 0.3165 0.7705
vn -0.6945 0.3818 0.6098
vn -0.7887 0.2504 0.5614
vn 0.0472 -0.4655 -0.8838
vn 0.3406 -0.6359 -0.6925
vn -0.4349 -0.4126 -0.8004
vn -0.8644 0.1398 -0.4830
vn -0.1518 0.4586 -0.8756
vn -0.4841 0.8641 0.1374
vn -0.3016 0.6903 0.6577
vn 0.1200 0.8398 0.5294
vn 0.1301 0.1974 -0.9716
vn 0.2495 0.2110 -0.9451
vn 0.5391 0.5198 0.6627
vn 0.1014 0.7326 0.6731
vn -0.0301 0.1598 0.9867
vn 0.8310 -0.5154 0.2092
vn 0.8620 -0.5059 0.0307
vn 0.9243 0.0438 0.3792
vn 0.9179 0.3966 0.0102
vn 0.8845 0.1749 -0.4325
vn 0.7345 0.6628 -0.1455
vn -0.9243 -0.2264 0.3073
vn 0.5766 0.3176 0.7528
vn -0.5478 0.5858 0.5973
vn 0.0602 -0.1733 0.9830
vn 0.6983 -0.1075 0.7077
vn 0.4547 0.5080 0.7316
vn 0.9416 0.2253 0.2504
vn 0.9895 0.1440 -0.0149
vn 0.7331 -0.6301 0.2561
vn 0.3831 -0.2364 -0.8929
vn 0.5231 -0.8478 0.0874
vn -0.3769 -0.9088 0.1792
vn 0.2134 -0.9768 -0.0164
vn 0.9310 -0.2930 0.2175
vn 0.5746 -0.6721 0.4671
vn 0.9496 0.3062 -0.0666
vn -0.6433 -0.6235 -0.4444
vn -0.5187 -0.8516 0.0756
vn -0.5516 -0.5893 0.5903
vn -0.7567 0.2102 0.6190
vn -0.1341 0.9881 0.0758
vn -0.2437 0.9656 -0.0909
vn 0.4191 0.9048 -0.0753
vn -0.4909 -0.2908 0.8212
vn -0.4545 0.3104 0.8349
vn -0.7929 -0.5990 -0.1119
vn 0.4418 -0.8966 0.0290
vn -0.1432 -0.8649 -0.4812
vn -0.1946 -0.5412 -0.8180
vn 0.0379 -0.6406 -0.7669
vn 0.3710 0.3028 -0.8779
vn 0.3397 0.5491 -0.7636
vn 0.4934 0.7602 0.4227
vn -0.7977 -0.5607 -0.2222
vn -0.7115 -0.6018 0.3629
vn -0.9154 -0.3421 0.2123
vn 0.1668 0.0565 0.9844
vn -0.2886 -0.1923 0.9379
vn -0.3202 0.6549 0.6845
vn -0.2407 0.8987 0.3667
vn 0.3116 0.9458 0.0914
vn 0.4085 0.7370 0.5384
vn 0.4101 0.4013 0.8190
vn 0.2261 0.2297 0.9466
vn 0.5095 0.2892 -0.8104
vn 0.1839 -0.0661 -0.9807
vn 0.0600 0.2962 -0.9532
vn 0.1161 -0.1974 0.9734
vn -0.1735 -0.1961 -0.9651
vn 0.6186 0.0193 0.7855
vn -0.2363 0.0432 -0.9707
vn -0.3034 -0.0314 -0.9524
vn -0.9112 -0.3515 0.2147
vn 0.5647 -0.8203 0.0912
vn 0.4088 -0.8533 0.3236
vn -0.4903 -0.2863 0.8232
vn 0.2752 -0.7774 0.5657
vn 0.4324 0.5035 -0.7480
vn -0.1393 0.3892 -0.9106
vn -0.0351 0.0658 -0.9972
vn 0.1400 0.6628 0.7356
vn -0.2265 0.8295 0.5105
vn 0.2054 0.1623 -0.9651
vn 0.0615 0.5248 -0.8490
vn 0.7028 0.6542 0.2795
vn -0.5488 0.0213 0.8357
vn -0.9668 0.2320 -0.1075
vn 0.0529 -0.3891 -0.9197
vn 0.5611 -0.2506 -0.7889
vn 0.1578 0.9873 -0.0205
vn -0.1430 0.9897 0.0089
vn 0.7839 0.0219 0.6205
vn 0.3828 0.0703 0.9212
vn 0.1210 -0.2240 -0.9670
vn -0.0315 -0.3977 -0.9170
vn -0.0411 -0.5777 0.8152
vn -0.0935 -0.1270 -0.9875
vn 0.9997 0.0093 0.0234
vn 0.9502 0.0802 0.3012
vn -0.2712 -0.0978 0.9575
vn 0.3517 -0.1214 -0.9282
vn 0.6702 0.6338 0.3860
vn 0.9293 -0.2411 0.2799
vn 0.8477 0.5304 -0.0116
vn -0.6808 -0.4010 0.6129
vn -0.6037 -0.7939 -0.0729
vn -0.2033 0.1540 -0.9669
vn -0.0442 0.2131 -0.9760
vn -0.8485 0.1618 0.5039
vn -0.6101 -0.3546 0.7086
vn -0.2348 -0.5440 0.8055
vn -0.4303 -0.2886 0.8553
vn -0.9503 -0.3113 0.0005
vn -0.1244 -0.9777 -0.1691
vn 0.6910 0.4468 0.5682
vn 0.1901 -0.2613 0.9464
vn -0.3857 0.7617 0.5206
vn -0.2636 0.6733 0.6908
vn 0.2973 0.8105 0.5046
vn -0.5511 0.2895 0.7826
vn 0.1325 0.0621 -0.9892
vn -0.2304 -0.0952 -0.9684
vn -0.0334 -0.2638 -0.9640
vn 0.0182 -0.1793 -0.9836
vn -0.1179 -0.3944 -0.9113
vn 0.4759 -0.8655 0.1560
vn 0.9021 -0.4248 -0.0756
vn -0.3086 0.0429 -0.9502
vn 0.1016 -0.1486 -0.9837
vn -0.7251 0.4227 -0.5437
vn 0.8431 0.5136 0.1593
vn -0.1722 0.8340 0.5241
vn 0.2220 0.5234 -0.8227
vn 0.4978 -0.1854 -0.8472
vn -0.9014 -0.3684 -0.2274
vn -0.9035 -0.3155 0.2900
vn -0.8106 -0.5806 0.0762
vn -0.9506 0.3054 0.0560
vn -0.7065 0.6884 -0.1643
vn 0.1958 0.6297 -0.7517
vn -0.7378 0.6751 -0.0028
vn 0.3388 -0.1255 -0.9324
vn 0.2175 -0.4056 -0.8878
vn 0.2767 0.0658 -0.9587
vn -0.1399 0.9901 -0.0083
vn 0.7266 0.6854 0.0471
vn -0.5162 0.8343 -0.1938
vn 0.8738 0.4640 0.1457
vn 0.5810 0.8127 -0.0447
vn 0.2133 0.3732 0.9029
vn 0.5070 0.2827 0.8142
vn -0.1047 0.5667 0.8173
vn 0.3887 -0.1719 0.9052
vn 0.0160 -0.9572 0.2889
vn -0.5901 -0.4681 0.6578
vn 0.5613 0.7826 0.2694
vn -0.2962 0.9494 0.1044
vn -0.6057 0.5765 -0.5484
vn -0.5478 0.7948 -0.2613
vn -0.2034 0.4480 -0.8706
vn 0.3599 -0.0447 -0.9319
vn -0.2262 -0.0778 -0.9710
vn -0.5661 0.2152 -0.7957
vn -0.7085 -0.7005 -0.0852
vn 0.2971 0.0288 -0.9544
vn -0.0167 -0.1865 -0.9823
vn 0.6283 -0.1080 0.7704
vn 0.0348 0.3461 0.9375
vn -0.7383 0.0486 0.6727
vn 0.9030 -0.4296 -0.0043
vn 0.3085 -0.3946 0.8655
vn 0.7203 -0.1754 0.6711
vn -0.1016 -0.3851 -0.9173
vn -0.1419 -0.0423 -0.9890
vn -0.3900 -0.4457 0.8058
vn -0.0555 -0.7561 0.6521
vn -0.0733 -0.8769 0.4751
vn 0.0329 -0.7654 0.6427
vn -0.2658 -0.8956 0.3567
vn 0.7943 0.6052 -0.0527
vn -0.8834 0.3475 -0.3145
vn 0.6002 -0.7514 0.2742
vn 0.0568 -0.5592 0.8271
vn 0.2350 -0.6766 0.6979
vn 0.8193 -0.4990 -0.2824
vn 0.6802 -0.6623 -0.3140
vn -0.4672 -0.5622 -0.6824
vn 0.1310 -0.7444 -0.6548
vn 0.5751 -0.1052 -0.8113
vn 0.4331 -0.8859 0.1660
vn 0.7808 0.1783 0.5988
vn 0.7298 0.6734 -0.1178
vn -0.8448 0.5222 -0.1170
vn 0.1991 0.6190 0.7597
vn 0.5115 -0.4280 0.7451
vn -0.5118 -0.0970 0.8536
vn 0.8805 -0.2560 0.3989
vn 0.7630 0.6345 0.1230
vn 0.9398 0.3247 0.1062
vn 0.1668 0.9766 -0.1357
vn 0.6373 0.7675 0.0690
vn -0.5062 0.5097 0.6957
vn -0.3420 0.9397 0.0085
vn -0.9998 -0.0182 -0.0001
vn -0.1046 -0.9940 -0.0322
vn -0.6703 -0.6257 0.3990
vn -0.9058 0.3476 0.2423
vn -0.9734 -0.0893 -0.2111
vn -0.1862 0.8705 0.4556
vn -0.0149 0.7445 0.6674
vn 0.2101 0.5759 -0.7900
vn 0.1158 -0.1315 0.9845
vn -0.4231 -0.5161 -0.7447
vn -0.3212 -0.2431 -0.9153
vn 0.4978 0.7886 -0.3610
vn -0.4964 -0.8314 0.2498
vn 0.1767 -0.9791 -0.1008
vn -0.2552 -0.0617 0.9649
vn 0.0182 -0.4113 0.9113
vn 0.8123 -0.5442 0.2097
vn 0.8498 -0.4066 -0.3355
vn 0.7887 0.5869 0.1828
vn 0.5815 0.3832 0.7177
vn 0.1004 0.5573 0.8242
vn 0.1435 -0.9895 -0.0152
vn 0.9900 -0.0096 0.1405
vn 0.0218 -0.0503 -0.9985
vn 0.6492 0.4601 0.6056
vn 0.6559 -0.0428 0.7536
vn 0.8181 -0.1238 0.5616
vn -0.3435 -0.1482 0.9274
vn 0.9889 0.1436 -0.0389
vn 0.2363 0.4080 -0.8819
vn -0.3534 -0.0565 -0.9338
vn -0.0689 0.0051 -0.9976
vn -0.2459 -0.0735 -0.9665
vn 0.9013 0.4161 0.1204
vn 0.3497 -0.8531 -0.3872
vn 0.5336 -0.8456 -0.0130
vn -0.4559 -0.2801 -0.8448
vn 0.9959 -0.0825 -0.0373
vn -0.0264 -0.7741 0.6325
vn 0.1223 -0.6800 -0.7229
vn 0.2373 0.1283 -0.9629
vn 0.6933 -0.6090 -0.3853
vn 0.0675 0.1812 -0.9811
vn 0.0179 -0.4340 -0.9007
vn -0.3918 -0.4024 -0.8274
vn 0.0013 -0.5493 0.8356
vn 0.0799 -0.3443 0.9354
vn -0.4149 -0.6241 -0.6621
vn 0.2987 -0.2691 0.9156
vn 0.0594 -0.0217 -0.9980
vn 0.2307 -0.0965 -0.9682
vn -0.0399 -0.2371 0.9707
vn -0.0253 -0.6026 0.7976
vn -0.4886 0.8715 0.0419
vn 0.7098 0.5088 -0.4871
vn 0.8722 0.2932 -0.3916
vn 0.6265 -0.1280 -0.7688
vn -0.8723 0.4719 -0.1279
vn -0.1498 0.2771 -0.9491
vn 0.1274 -0.3404 -0.9316
vn 0.2427 0.1533 -0.9579
vn -0.1780 0.7336 0.6558
vn -0.2209 0.0603 -0.9734
vn 0.6599 -0.5800 -0.4777
vn 0.9969 0.0237 -0.0754
vn -0.3909 -0.3119 -0.8660
vn 0.8379 -0.5386 0.0889
vn -0.3477 0.5104 0.7865
vn -0.3511 0.8663 -0.3552
vn -0.7833 0.6202 -0.0413
vn -0.1366 0.6542 0.7439
vn -0.2615 0.1812 0.9480
vn -0.2964 0.2360 -0.9255
vn -0.0395 0.8774 -0.4781
vn 0.2215 0.3923 -0.8928
vn 0.6931 -0.4846 -0.5336
vn -0.9297 0.3680 0.0127
vn -0.5193 -0.6373 0.5693
vn 0.2034 -0.0757 -0.9762
vn -0.2999 -0.8347 0.4619
vn -0.1515 -0.9851 -0.0809
vn -0.4421 0.8288 0.3431
vn -0.6827 0.2774 -0.6760
vn 0.6782 -0.6616 -0.3198
vn -0.6899 0.7137 0.1212
vn -0.6639 0.6081 -0.4353
vn -0.7301 0.0994 0.6760
vn -0.8140 0.1121 0.5700
vn 0.9132 0.2225 -0.3414
vn -0.7858 -0.3162 0.5316
vn 0.0029 -0.4926 -0.8703
vn 0.4208 0.8551 0.3030
vn -0.7650 -0.5260 0.3717
vn -0.2340 -0.4223 -0.8757
# 521 vertex normals

vt 0.5306 0.4271 0.0000
vt 0.4959 0.4174 0.0000
vt 0.4936 0.3827 0.0000
vt 0.8456 0.4022 0.0000
vt 0.9169 0.4138 0.0000
vt 0.8644 0.4455 0.0000
vt 0.2076 0.8385 0.0000
vt 0.2335 0.8194 0.0000
vt 0.2456 0.8852 0.0000
vt 0.4211 0.8329 0.0000
vt 0.4233 0.8706 0.0000
vt 0.3733 0.8524 0.0000
vt 0.9396 0.3552 0.0000
vt 0.9805 0.4045 0.0000
vt 0.7009 0.8400 0.0000
vt 0.7543 0.8792 0.0000
vt 0.6953 0.8823 0.0000
vt 0.8705 0.8657 0.0000
vt 0.8472 0.8944 0.0000
vt 0.8405 0.8586 0.0000
vt 0.1429 0.0602 0.0000
vt 0.1381 0.0393 0.0000
vt 0.1368 0.0402 0.0000
vt 0.8770 0.4963 0.0000
vt 0.9269 0.5281 0.0000
vt 0.9049 0.5385 0.0000
vt 0.9413 0.4822 0.0000
vt 0.1394 0.0385 0.0000
vt 0.1378 0.0387 0.0000
vt 0.1398 0.0378 0.0000
vt 0.1421 0.0372 0.0000
vt 0.1758 0.0263 0.0000
vt 0.1326 0.0214 0.0000
vt 0.1735 0.0011 0.0000
vt 0.4438 0.7318 0.0000
vt 0.4185 0.7454 0.0000
vt 0.4274 0.7182 0.0000
vt 0.8284 0.5095 0.0000
vt 0.8485 0.5114 0.0000
vt 0.8698 0.5383 0.0000
vt 0.0409 0.7725 0.0000
vt 0.0731 0.7303 0.0000
vt 0.0925 0.7870 0.0000
vt 0.4286 0.7587 0.0000
vt 0.5753 0.6981 0.0000
vt 0.6147 0.6991 0.0000
vt 0.6905 0.7215 0.0000
vt 0.1703 0.8320 0.0000
vt 0.1777 0.8847 0.0000
vt 0.1295 0.8470 0.0000
vt 0.4561 0.7684 0.0000
vt 0.4676 0.7462 0.0000
vt 0.5001 0.7615 0.0000
vt 0.9853 0.4420 0.0000
vt 0.9596 0.5093 0.0000
vt 0.0361 0.9905 0.0000
vt 0.0012 0.9508 0.0000
vt 0.0329 0.9765 0.0000
vt 0.0459 0.9622 0.0000
vt 0.4386 0.6609 0.0000
vt 0.4054 0.7184 0.0000
vt 0.9824 0.8580 0.0000
vt 0.9515 0.8870 0.0000
vt 0.9472 0.8552 0.0000
vt 0.0011 0.6560 0.0000
vt 0.0582 0.6864 0.0000
vt 0.0180 0.7260 0.0000
vt 0.4551 0.6955 0.0000
vt 0.2108 0.7756 0.0000
vt 0.2857 0.7425 0.0000
vt 0.3024 0.7778 0.0000
vt 0.9771 0.1133 0.0000
vt 0.9258 0.1366 0.0000
vt 0.9711 0.0860 0.0000
vt 0.8794 0.0759 0.0000
vt 0.0744 0.9208 0.0000
vt 0.1122 0.9146 0.0000
vt 0.1021 0.9565 0.0000
vt 0.5562 0.8564 0.0000
vt 0.5203 0.8827 0.0000
vt 0.4999 0.8496 0.0000
vt 0.1602 0.7063 0.0000
vt 0.2218 0.6501 0.0000
vt 0.2083 0.6863 0.0000
vt 0.4933 0.6743 0.0000
vt 0.5484 0.6749 0.0000
vt 0.4850 0.7238 0.0000
vt 0.3073 0.8236 0.0000
vt 0.2773 0.8755 0.0000
vt 0.2914 0.7882 0.0000
vt 0.7633 0.3961 0.0000
vt 0.6929 0.4741 0.0000
vt 0.7126 0.4065 0.0000
vt 0.4493 0.0338 0.0000
vt 0.4394 0.0578 0.0000
vt 0.4069 0.0611 0.0000
vt 0.1822 0.0760 0.0000
vt 0.1287 0.0933 0.0000
vt 0.1344 0.2503 0.0000
vt 0.1364 0.2875 0.0000
vt 0.1080 0.2676 0.0000
vt 0.2221 0.1694 0.0000
vt 0.1962 0.1813 0.0000
vt 0.1989 0.1193 0.0000
vt 0.1410 0.2253 0.0000
vt 0.0979 0.2374 0.0000
vt 0.1174 0.2129 0.0000
vt 0.1784 0.1975 0.0000
vt 0.1361 0.1839 0.0000
vt 0.1370 0.1329 0.0000
vt 0.4582 0.1105 0.0000
vt 0.4594 0.1939 0.0000
vt 0.4190 0.1151 0.0000
vt 0.3319 0.2496 0.0000
vt 0.3285 0.1880 0.0000
vt 0.3720 0.2027 0.0000
vt 0.4930 0.1008 0.0000
vt 0.5219 0.0825 0.0000
vt 0.5430 0.1440 0.0000
vt 0.4821 0.1498 0.0000
vt 0.8217 0.4790 0.0000
vt 0.7653 0.4857 0.0000
vt 0.7785 0.4283 0.0000
vt 0.5593 0.3483 0.0000
vt 0.4423 0.5407 0.0000
vt 0.4552 0.4920 0.0000
vt 0.5038 0.4938 0.0000
vt 0.4370 0.4056 0.0000
vt 0.4559 0.4267 0.0000
vt 0.3862 0.4244 0.0000
vt 0.1738 0.0413 0.0000
vt 0.6260 0.5011 0.0000
vt 0.5904 0.4989 0.0000
vt 0.6300 0.4456 0.0000
vt 0.3824 0.4437 0.0000
vt 0.3494 0.1323 0.0000
vt 0.3819 0.1527 0.0000
vt 0.2376 0.0959 0.0000
vt 0.2676 0.1414 0.0000
vt 0.6735 0.3525 0.0000
vt 0.6759 0.4060 0.0000
vt 0.5913 0.4494 0.0000
vt 0.7589 0.3838 0.0000
vt 0.7045 0.3880 0.0000
vt 0.7543 0.3418 0.0000
vt 0.2138 0.4734 0.0000
vt 0.2456 0.5328 0.0000
vt 0.1544 0.5272 0.0000
vt 0.1682 0.4421 0.0000
vt 0.1837 0.3965 0.0000
vt 0.2520 0.4510 0.0000
vt 0.0564 0.5117 0.0000
vt 0.0612 0.4476 0.0000
vt 0.1457 0.4974 0.0000
vt 0.1530 0.4468 0.0000
vt 0.1086 0.4037 0.0000
vt 0.3077 0.4950 0.0000
vt 0.2785 0.4565 0.0000
vt 0.3094 0.4594 0.0000
vt 0.7396 0.4957 0.0000
vt 0.3713 0.7563 0.0000
vt 0.3750 0.6502 0.0000
vt 0.4042 0.6724 0.0000
vt 0.2892 0.6224 0.0000
vt 0.2330 0.6226 0.0000
vt 0.2717 0.5967 0.0000
vt 0.5337 0.7310 0.0000
vt 0.8228 0.4612 0.0000
vt 0.2032 0.4651 0.0000
vt 0.3866 0.2313 0.0000
vt 0.4013 0.2671 0.0000
vt 0.5012 0.2660 0.0000
vt 0.4442 0.2783 0.0000
vt 0.4733 0.2266 0.0000
vt 0.2178 0.5450 0.0000
vt 0.1819 0.5801 0.0000
vt 0.3656 0.6167 0.0000
vt 0.4294 0.2179 0.0000
vt 0.4190 0.1958 0.0000
vt 0.3355 0.6755 0.0000
vt 0.3022 0.7372 0.0000
vt 0.2663 0.6548 0.0000
vt 0.7163 0.0857 0.0000
vt 0.7622 0.1051 0.0000
vt 0.7194 0.1511 0.0000
vt 0.6889 0.0908 0.0000
vt 0.6864 0.1493 0.0000
vt 0.6638 0.1009 0.0000
vt 0.7336 0.1745 0.0000
vt 0.8060 0.1489 0.0000
vt 0.7842 0.1876 0.0000
vt 0.6405 0.2597 0.0000
vt 0.6290 0.1959 0.0000
vt 0.6561 0.2207 0.0000
vt 0.5708 0.1673 0.0000
vt 0.6127 0.1942 0.0000
vt 0.5803 0.2040 0.0000
vt 0.5983 0.1267 0.0000
vt 0.8894 0.0131 0.0000
vt 0.9103 0.0011 0.0000
vt 0.9048 0.0588 0.0000
vt 0.6461 0.0591 0.0000
vt 0.6772 0.0701 0.0000
vt 0.1040 0.1694 0.0000
vt 0.0681 0.2325 0.0000
vt 0.0510 0.1504 0.0000
vt 0.5223 0.1729 0.0000
vt 0.5045 0.2519 0.0000
vt 0.5439 0.4708 0.0000
vt 0.5285 0.4870 0.0000
vt 0.4786 0.4506 0.0000
vt 0.7250 0.3419 0.0000
vt 0.8491 0.0878 0.0000
vt 0.8524 0.1192 0.0000
vt 0.8258 0.1028 0.0000
vt 0.6488 0.0011 0.0000
vt 0.7004 0.0111 0.0000
vt 0.6666 0.0230 0.0000
vt 0.3252 0.4721 0.0000
vt 0.3649 0.4645 0.0000
vt 0.3392 0.4984 0.0000
vt 0.4632 0.4444 0.0000
vt 0.4177 0.4949 0.0000
vt 0.3851 0.5387 0.0000
vt 0.3306 0.5206 0.0000
vt 0.4003 0.1041 0.0000
vt 0.3715 0.0793 0.0000
vt 0.8314 0.6394 0.0000
vt 0.8442 0.6214 0.0000
vt 0.8489 0.6475 0.0000
vt 0.1301 0.7321 0.0000
vt 0.1004 0.6981 0.0000
vt 0.1556 0.6892 0.0000
vt 0.3628 0.8560 0.0000
vt 0.3274 0.8824 0.0000
vt 0.6573 0.6206 0.0000
vt 0.7205 0.6443 0.0000
vt 0.6785 0.6738 0.0000
vt 0.1005 0.6525 0.0000
vt 0.0665 0.5968 0.0000
vt 0.1269 0.6437 0.0000
vt 0.8781 0.7449 0.0000
vt 0.8385 0.6956 0.0000
vt 0.8688 0.6872 0.0000
vt 0.0649 0.7109 0.0000
vt 0.1071 0.6669 0.0000
vt 0.7339 0.6881 0.0000
vt 0.6290 0.6705 0.0000
vt 0.1830 0.2189 0.0000
vt 0.1566 0.2469 0.0000
vt 0.1825 0.2519 0.0000
vt 0.6068 0.6120 0.0000
vt 0.5966 0.6787 0.0000
vt 0.8124 0.6616 0.0000
vt 0.0401 0.6395 0.0000
vt 0.2159 0.3844 0.0000
vt 0.2772 0.4487 0.0000
vt 0.2605 0.5534 0.0000
vt 0.2535 0.4706 0.0000
vt 0.5892 0.4036 0.0000
vt 0.4656 0.0574 0.0000
vt 0.1212 0.3418 0.0000
vt 0.1106 0.3703 0.0000
vt 0.0458 0.3770 0.0000
vt 0.5121 0.5205 0.0000
vt 0.5179 0.5482 0.0000
vt 0.5652 0.5096 0.0000
vt 0.0190 0.8570 0.0000
vt 0.0263 0.8879 0.0000
vt 0.0011 0.8524 0.0000
vt 0.7955 0.5235 0.0000
vt 0.6720 0.5576 0.0000
vt 0.6657 0.5191 0.0000
vt 0.7056 0.5212 0.0000
vt 0.3331 0.6315 0.0000
vt 0.3095 0.6064 0.0000
vt 0.1120 0.5624 0.0000
vt 0.5835 0.0304 0.0000
vt 0.6146 0.0452 0.0000
vt 0.5771 0.0597 0.0000
vt 0.6271 0.0999 0.0000
vt 0.6169 0.0566 0.0000
vt 0.0188 0.4596 0.0000
vt 0.0011 0.4605 0.0000
vt 0.0738 0.5654 0.0000
vt 0.7070 0.2391 0.0000
vt 0.6689 0.2176 0.0000
vt 0.6883 0.1979 0.0000
vt 0.6130 0.8009 0.0000
vt 0.6373 0.8303 0.0000
vt 0.6066 0.8709 0.0000
vt 0.0764 0.8177 0.0000
vt 0.6532 0.8984 0.0000
vt 0.9394 0.4284 0.0000
vt 0.2089 0.7131 0.0000
vt 0.1773 0.7642 0.0000
vt 0.0778 0.3501 0.0000
vt 0.2256 0.0161 0.0000
vt 0.2114 0.0296 0.0000
vt 0.1004 0.6994 0.0000
vt 0.0907 0.6770 0.0000
vt 0.9302 0.1982 0.0000
vt 0.9183 0.2265 0.0000
vt 0.8840 0.2033 0.0000
vt 0.7185 0.1979 0.0000
vt 0.7353 0.2380 0.0000
vt 0.9159 0.1674 0.0000
vt 0.9579 0.1688 0.0000
vt 0.6713 0.2643 0.0000
vt 0.5970 0.0961 0.0000
vt 0.5701 0.1095 0.0000
vt 0.6757 0.8310 0.0000
vt 0.6497 0.7881 0.0000
vt 0.7081 0.2624 0.0000
vt 0.7509 0.2689 0.0000
vt 0.7379 0.1842 0.0000
vt 0.7384 0.1991 0.0000
vt 0.4872 0.6478 0.0000
vt 0.5466 0.6061 0.0000
vt 0.8836 0.3418 0.0000
vt 0.4027 0.0237 0.0000
vt 0.2363 0.0537 0.0000
vt 0.1937 0.0553 0.0000
vt 0.6312 0.1437 0.0000
vt 0.8762 0.2273 0.0000
vt 0.7556 0.2330 0.0000
vt 0.7695 0.2034 0.0000
vt 0.7780 0.2473 0.0000
vt 0.8239 0.3844 0.0000
vt 0.6982 0.7561 0.0000
vt 0.3376 0.7927 0.0000
vt 0.3642 0.8206 0.0000
vt 0.7138 0.7202 0.0000
vt 0.0763 0.1013 0.0000
vt 0.1639 0.1053 0.0000
vt 0.1105 0.1338 0.0000
vt 0.6770 0.8275 0.0000
vt 0.7278 0.7882 0.0000
vt 0.7858 0.8762 0.0000
vt 0.7305 0.8429 0.0000
vt 0.0333 0.2776 0.0000
vt 0.0557 0.2649 0.0000
vt 0.0932 0.3066 0.0000
vt 0.0150 0.2038 0.0000
vt 0.8704 0.0485 0.0000
vt 0.8715 0.0287 0.0000
vt 0.8387 0.0406 0.0000
vt 0.8072 0.0434 0.0000
vt 0.8250 0.0022 0.0000
vt 0.7405 0.8144 0.0000
vt 0.7957 0.8325 0.0000
vt 0.9980 0.8226 0.0000
vt 0.9561 0.8189 0.0000
vt 0.5422 0.1939 0.0000
vt 0.8118 0.8914 0.0000
vt 0.7553 0.8978 0.0000
vt 0.9190 0.8601 0.0000
vt 0.9235 0.8165 0.0000
vt 0.6150 0.0047 0.0000
vt 0.6270 0.0189 0.0000
vt 0.2899 0.5131 0.0000
vt 0.3231 0.5476 0.0000
vt 0.8663 0.6357 0.0000
vt 0.8580 0.6747 0.0000
vt 0.3819 0.5653 0.0000
vt 0.4517 0.6318 0.0000
vt 0.4967 0.5969 0.0000
vt 0.4588 0.6783 0.0000
vt 0.9068 0.6854 0.0000
vt 0.9009 0.7179 0.0000
vt 0.8751 0.6536 0.0000
vt 0.1856 0.5957 0.0000
vt 0.1146 0.5946 0.0000
vt 0.0932 0.8624 0.0000
vt 0.1283 0.8419 0.0000
vt 0.0652 0.9136 0.0000
vt 0.1104 0.7966 0.0000
vt 0.0516 0.7881 0.0000
vt 0.7079 0.8337 0.0000
vt 0.7136 0.6114 0.0000
vt 0.7499 0.6504 0.0000
vt 0.9683 0.7069 0.0000
vt 0.9366 0.7158 0.0000
vt 0.9176 0.6781 0.0000
vt 0.9538 0.6238 0.0000
vt 0.9597 0.6630 0.0000
vt 0.9778 0.6826 0.0000
vt 0.2514 0.8215 0.0000
vt 0.8706 0.1861 0.0000
vt 0.8727 0.1540 0.0000
vt 0.2102 0.8722 0.0000
vt 0.1831 0.8227 0.0000
vt 0.2132 0.8150 0.0000
vt 0.2267 0.0746 0.0000
vt 0.1875 0.0435 0.0000
vt 0.2207 0.9106 0.0000
vt 0.9838 0.6069 0.0000
vt 0.9544 0.0570 0.0000
vt 0.3290 0.4475 0.0000
vt 0.3383 0.4113 0.0000
vt 0.3158 0.3761 0.0000
vt 0.3544 0.3786 0.0000
vt 0.3005 0.4266 0.0000
vt 0.5781 0.4668 0.0000
vt 0.0094 0.8988 0.0000
vt 0.4799 0.3420 0.0000
vt 0.4583 0.3924 0.0000
vt 0.4075 0.3562 0.0000
vt 0.8173 0.7061 0.0000
vt 0.7510 0.7139 0.0000
vt 0.8250 0.5969 0.0000
vt 0.7946 0.6388 0.0000
vt 0.3270 0.1415 0.0000
vt 0.2479 0.1566 0.0000
vt 0.6210 0.6302 0.0000
vt 0.6533 0.5969 0.0000
vt 0.0177 0.3830 0.0000
vt 0.4974 0.4198 0.0000
vt 0.6940 0.0459 0.0000
vt 0.8656 0.4682 0.0000
vt 0.7792 0.8557 0.0000
vt 0.1480 0.3407 0.0000
vt 0.2023 0.2853 0.0000
vt 0.4465 0.2991 0.0000
vt 0.8132 0.8627 0.0000
vt 0.8634 0.8246 0.0000
vt 0.8188 0.8292 0.0000
vt 0.8297 0.7882 0.0000
vt 0.9178 0.8372 0.0000
vt 0.8906 0.8878 0.0000
vt 0.8841 0.8441 0.0000
vt 0.2082 0.7881 0.0000
vt 0.2453 0.7923 0.0000
vt 0.1646 0.8072 0.0000
vt 0.8460 0.8341 0.0000
vt 0.5752 0.8772 0.0000
vt 0.6271 0.0600 0.0000
vt 0.6457 0.5387 0.0000
vt 0.5992 0.5346 0.0000
vt 0.4842 0.8740 0.0000
vt 0.4093 0.8174 0.0000
vt 0.4568 0.7882 0.0000
vt 0.8719 0.4783 0.0000
vt 0.4924 0.4001 0.0000
vt 0.4479 0.8344 0.0000
vt 0.4894 0.8288 0.0000
vt 0.4527 0.8727 0.0000
vt 0.4391 0.8464 0.0000
vt 0.4042 0.8963 0.0000
vt 0.1159 0.5365 0.0000
vt 0.2829 0.1603 0.0000
vt 0.2403 0.2228 0.0000
vt 0.2970 0.1455 0.0000
vt 0.2573 0.2044 0.0000
vt 0.2359 0.1864 0.0000
vt 0.2706 0.1806 0.0000
vt 0.6519 0.0310 0.0000
vt 0.3090 0.2071 0.0000
vt 0.3035 0.1738 0.0000
vt 0.6446 0.4885 0.0000
vt 0.2799 0.6983 0.0000
vt 0.2325 0.7348 0.0000
vt 0.2817 0.2170 0.0000
vt 0.7218 0.5409 0.0000
vt 0.7591 0.5477 0.0000
vt 0.4323 0.0012 0.0000
vt 0.2958 0.1817 0.0000
vt 0.2647 0.1687 0.0000
vt 0.3879 0.0058 0.0000
vt 0.3844 0.0464 0.0000
vt 0.8077 0.4237 0.0000
vt 0.3005 0.6556 0.0000
vt 0.9742 0.7883 0.0000
vt 0.9960 0.6688 0.0000
vt 0.3716 0.4000 0.0000
vt 0.4199 0.4023 0.0000
vt 0.5306 0.8350 0.0000
vt 0.6212 0.6792 0.0000
vt 0.1351 0.9250 0.0000
vt 0.1313 0.9565 0.0000
vt 0.1690 0.1425 0.0000
vt 0.1647 0.1518 0.0000
vt 0.5922 0.2284 0.0000
vt 0.9655 0.1978 0.0000
vt 0.9286 0.6276 0.0000
vt 0.9544 0.5967 0.0000
vt 0.3653 0.8752 0.0000
vt 0.5685 0.8088 0.0000
vt 0.7485 0.7089 0.0000
vt 0.1702 0.6450 0.0000
vt 0.2564 0.8890 0.0000
vt 0.3107 0.9081 0.0000
vt 0.4714 0.4726 0.0000
vt 0.6176 0.9003 0.0000
vt 0.7681 0.6690 0.0000
vt 0.8520 0.2173 0.0000
vt 0.8038 0.2159 0.0000
vt 0.5741 0.6693 0.0000
vt 0.7329 0.0683 0.0000
vt 0.5274 0.8120 0.0000
vt 0.1591 0.7217 0.0000
vt 0.8806 0.6758 0.0000
vt 0.9164 0.6563 0.0000
vt 0.0908 0.2596 0.0000
vt 0.4401 0.9027 0.0000
vt 0.1112 0.1868 0.0000
vt 0.9683 0.1316 0.0000
vt 0.9809 0.1827 0.0000
vt 0.9033 0.2426 0.0000
vt 0.8455 0.1420 0.0000
vt 0.1252 0.0463 0.0000
vt 0.1206 0.0614 0.0000
vt 0.8521 0.0710 0.0000
vt 0.0490 0.8130 0.0000
vt 0.2553 0.8925 0.0000
vt 0.4154 0.5242 0.0000
vt 0.5499 0.1346 0.0000
vt 0.5741 0.8427 0.0000
vt 0.2788 0.1293 0.0000
vt 0.5487 0.2105 0.0000
vt 0.5616 0.1749 0.0000
vt 0.0228 0.1428 0.0000
vt 0.0011 0.1880 0.0000
vt 0.7878 0.3822 0.0000
vt 0.0744 0.7022 0.0000
vt 0.3052 0.1301 0.0000
vt 0.0391 0.9148 0.0000
vt 0.0731 0.9566 0.0000
vt 0.0412 0.9341 0.0000
vt 0.0237 0.9406 0.0000
vt 0.8525 0.0087 0.0000
# 531 texture coords

g Stone_10
s off
f 1/1/1 2/2/2 3/3/3 
f 4/4/4 5/5/5 6/6/6 
f 7/7/7 8/8/8 9/9/9 
f 10/10/10 11/11/11 12/12/12 
f 5/5/5 13/13/13 14/14/14 
f 15/15/15 16/16/16 17/17/17 
f 18/18/18 19/19/19 20/20/20 
f 21/21/21 22/22/22 23/23/23 
f 24/24/24 25/25/25 26/26/26 
f 24/24/24 27/27/27 25/25/25 
f 22/22/22 28/28/28 29/29/29 
f 21/21/21 28/28/28 22/22/22 
f 28/28/28 30/30/30 29/29/29 
f 21/21/21 31/31/31 28/28/28 
f 32/32/32 29/29/29 33/33/33 
f 33/33/33 31/31/31 21/21/21 
f 33/33/33 34/34/34 32/32/32 
f 35/35/35 25/36/36 36/37/37 
f 37/38/38 38/39/39 39/40/40 
f 40/41/41 41/42/42 42/43/43 
f 35/35/35 26/44/44 25/36/36 
f 43/45/45 44/46/46 45/47/47 
f 46/48/48 47/49/49 48/50/50 
f 39/51/51 49/52/52 37/53/53 
f 50/54/54 51/55/55 27/27/27 
f 52/56/56 53/57/57 54/58/58 
f 54/58/58 55/59/59 52/56/56 
f 35/35/35 36/37/37 50/60/60 
f 36/37/37 51/61/61 50/60/60 
f 17/62/62 56/63/63 57/64/64 
f 58/65/65 59/66/66 60/67/67 
f 61/68/68 49/52/52 35/35/35 
f 62/69/69 63/70/70 64/71/71 
f 65/72/72 66/73/73 67/74/74 
f 68/75/75 67/74/74 66/73/73 
f 69/76/76 70/77/77 71/78/78 
f 72/79/79 73/80/80 74/81/81 
f 75/82/82 76/83/83 77/84/84 
f 78/85/85 79/86/86 80/87/87 
f 81/88/88 82/89/89 83/90/90 
f 84/91/91 85/92/92 86/93/93 
f 33/94/94 87/95/95 88/96/96 
f 21/21/21 89/97/97 90/98/98 
f 91/99/99 92/100/100 93/101/101 
f 94/102/102 95/103/103 96/104/104 
f 97/105/105 98/106/106 99/107/107 
f 100/108/108 101/109/109 102/110/110 
f 103/111/111 104/112/112 105/113/113 
f 106/114/114 107/115/115 108/116/116 
f 109/117/117 110/118/118 111/119/119 
f 112/120/120 104/112/112 103/111/111 
f 113/121/121 114/122/122 115/123/123 
f 1/1/1 3/3/3 116/124/124 
f 117/125/125 118/126/126 119/127/127 
f 120/128/128 121/129/129 122/130/130 
f 21/21/21 23/23/23 123/131/131 
f 23/23/23 29/29/29 123/131/131 
f 124/132/132 125/133/133 126/134/134 
f 121/129/129 127/135/135 122/130/130 
f 128/136/136 129/137/137 108/116/116 
f 130/138/138 131/139/139 96/104/104 
f 132/140/140 133/141/141 134/142/142 
f 135/143/143 136/144/144 137/145/145 
f 138/146/146 139/147/147 140/148/148 
f 141/149/149 142/150/150 143/151/151 
f 144/152/152 145/153/153 146/154/154 
f 147/155/155 145/153/153 148/156/156 
f 149/157/157 150/158/158 151/159/159 
f 85/92/92 115/123/123 152/160/160 
f 153/161/161 154/162/162 155/163/163 
f 156/164/164 157/165/165 158/166/166 
f 79/86/86 159/167/167 80/87/87 
f 4/4/4 6/6/6 159/168/168 
f 146/154/154 147/155/155 160/169/169 
f 146/154/154 145/153/153 147/155/155 
f 106/114/114 161/170/170 162/171/171 
f 163/172/172 164/173/173 165/174/174 
f 140/148/148 166/175/175 167/176/176 
f 154/162/162 168/177/177 155/163/163 
f 162/171/171 161/170/170 169/178/178 
f 161/170/170 170/179/179 169/178/178 
f 171/180/180 153/161/161 172/181/181 
f 77/84/84 76/83/83 173/182/182 
f 174/183/183 175/184/184 176/185/185 
f 177/186/186 178/187/187 179/188/188 
f 180/189/189 181/190/190 182/191/191 
f 183/192/192 184/193/193 185/194/194 
f 186/195/195 187/196/196 65/197/197 
f 188/198/198 187/196/196 186/195/195 
f 189/199/199 190/200/200 191/201/201 
f 179/188/188 192/202/202 193/203/203 
f 194/204/204 195/205/205 196/206/206 
f 197/207/207 198/208/208 165/174/174 
f 199/209/209 200/210/210 201/211/211 
f 202/212/212 136/144/144 132/140/140 
f 203/213/213 204/214/214 205/215/215 
f 206/216/216 207/217/217 208/218/218 
f 209/219/219 210/220/220 211/221/221 
f 212/222/222 213/223/223 210/220/220 
f 125/133/133 134/142/142 126/134/134 
f 210/220/220 214/224/224 215/225/225 
f 88/96/96 87/95/95 216/226/226 
f 128/136/136 130/227/227 216/226/226 
f 217/228/228 40/229/229 218/230/230 
f 219/231/231 220/232/232 221/233/233 
f 222/234/234 223/235/235 82/89/89 
f 224/236/236 225/237/237 226/238/238 
f 227/239/239 228/240/240 229/241/241 
f 229/242/242 230/243/243 231/244/244 
f 59/66/66 232/245/245 60/67/67 
f 233/246/246 221/233/233 220/232/232 
f 234/247/247 226/238/238 225/237/237 
f 226/238/238 45/47/47 235/248/248 
f 236/249/249 97/105/105 101/109/109 
f 237/250/250 238/251/251 92/100/100 
f 239/252/252 240/253/253 43/45/45 
f 235/248/248 224/236/236 226/238/238 
f 218/230/230 230/243/243 241/254/254 
f 228/240/240 227/239/239 242/255/255 
f 64/256/256 143/151/151 142/150/150 
f 153/257/257 155/258/258 243/259/259 
f 1/1/1 116/124/124 244/260/260 
f 84/91/91 115/123/123 85/92/92 
f 103/111/111 105/113/113 87/95/95 
f 110/118/118 109/117/117 245/261/261 
f 62/262/262 64/256/256 246/263/263 
f 145/153/153 247/264/264 148/156/156 
f 248/265/265 132/266/266 117/125/125 
f 202/267/267 132/266/266 248/265/265 
f 238/251/251 236/249/249 94/102/102 
f 237/250/250 236/249/249 238/251/251 
f 249/268/268 250/269/269 251/270/270 
f 114/122/122 113/121/121 252/271/271 
f 253/272/272 254/273/273 255/274/274 
f 168/177/177 256/275/275 257/276/276 
f 258/277/277 140/148/148 167/176/176 
f 189/278/278 259/279/279 190/280/280 
f 260/281/281 188/198/198 261/282/282 
f 247/264/264 262/283/283 263/284/284 
f 262/283/283 158/285/285 263/284/284 
f 184/193/193 178/187/187 185/194/194 
f 264/286/286 265/287/287 266/288/288 
f 267/289/289 268/290/290 269/291/291 
f 249/268/268 270/292/292 250/269/269 
f 178/187/187 266/288/288 265/287/287 
f 177/186/186 176/185/185 178/187/187 
f 269/291/291 268/290/290 251/293/293 
f 27/27/27 271/294/294 50/54/54 
f 27/27/27 24/24/24 271/294/294 
f 75/82/82 272/295/295 273/296/296 
f 246/263/263 247/264/264 273/297/297 
f 21/21/21 123/131/131 89/97/97 
f 274/298/298 275/299/299 32/32/32 
f 276/300/300 59/66/66 277/301/301 
f 242/255/255 277/301/301 59/66/66 
f 278/302/302 279/303/303 280/304/304 
f 281/305/305 282/306/306 264/286/286 
f 283/307/307 284/308/308 278/302/302 
f 285/309/309 265/287/287 264/286/286 
f 261/282/282 286/310/310 190/280/280 
f 286/310/310 287/311/311 190/280/280 
f 288/312/312 251/293/293 268/290/290 
f 288/312/312 268/290/290 289/313/313 
f 31/31/31 33/33/33 30/30/30 
f 29/29/29 30/30/30 33/33/33 
f 278/314/314 282/306/306 279/315/315 
f 290/316/316 182/191/191 291/317/317 
f 292/318/318 293/319/319 79/86/86 
f 4/4/4 293/320/320 5/5/5 
f 294/321/321 33/94/94 88/96/96 
f 274/298/298 295/322/322 296/323/323 
f 178/187/187 297/324/324 179/188/188 
f 188/198/198 260/281/281 297/324/324 
f 279/303/303 298/325/325 280/304/304 
f 299/326/326 300/327/327 301/328/328 
f 4/4/4 302/329/329 293/320/320 
f 4/4/4 159/168/168 302/329/329 
f 83/330/330 43/45/45 45/47/47 
f 303/331/331 304/332/332 83/90/90 
f 83/330/330 45/47/47 305/333/333 
f 226/238/238 305/333/333 45/47/47 
f 110/334/334 306/335/335 307/336/336 
f 110/334/334 307/336/336 196/206/206 
f 308/337/337 309/338/338 15/15/15 
f 310/339/339 16/16/16 311/340/340 
f 163/341/341 312/342/342 313/343/343 
f 314/344/344 312/342/342 163/341/341 
f 191/201/201 315/345/345 316/346/346 
f 317/347/347 207/348/348 206/349/349 
f 318/350/350 309/338/338 319/351/351 
f 308/352/352 57/64/64 320/353/353 
f 321/354/354 198/208/208 197/207/207 
f 111/119/119 197/207/207 109/117/117 
f 310/339/339 322/355/355 56/356/356 
f 322/357/357 319/358/358 320/353/353 
f 316/346/346 317/347/347 206/349/349 
f 323/359/359 324/360/360 259/279/279 
f 150/158/158 149/157/157 325/361/361 
f 125/362/362 215/225/225 214/224/224 
f 42/363/363 218/230/230 40/229/229 
f 218/230/230 326/364/364 230/243/243 
f 214/224/224 134/365/365 125/362/362 
f 134/365/365 117/125/125 132/266/266 
f 14/366/366 13/367/367 292/318/318 
f 80/87/87 327/368/368 78/85/85 
f 328/369/369 221/370/370 231/244/244 
f 326/364/364 218/230/230 329/371/371 
f 258/277/277 168/372/372 257/373/373 
f 158/285/285 262/283/283 144/152/152 
f 330/374/374 267/375/375 331/376/376 
f 289/377/377 270/292/292 288/378/378 
f 332/379/379 309/338/338 318/350/350 
f 311/340/340 16/16/16 332/379/379 
f 166/175/175 155/258/258 168/372/372 
f 243/259/259 155/258/258 139/147/147 
f 292/318/318 13/367/367 293/319/319 
f 13/13/13 5/5/5 293/320/320 
f 222/380/380 225/237/237 224/236/236 
f 234/247/247 225/237/237 304/381/381 
f 333/382/382 334/383/383 48/384/384 
f 48/384/384 335/385/385 336/386/386 
f 337/387/387 333/382/382 48/384/384 
f 338/388/388 9/9/9 8/8/8 
f 181/389/389 283/307/307 278/302/302 
f 68/75/75 283/307/307 339/390/390 
f 340/391/391 47/49/49 46/48/48 
f 341/392/392 342/393/393 7/7/7 
f 88/394/394 89/97/97 296/323/323 
f 343/395/395 89/97/97 123/131/131 
f 9/9/9 344/396/396 340/391/391 
f 336/386/386 335/385/385 345/397/397 
f 68/75/75 191/201/201 346/398/398 
f 346/398/398 191/201/201 190/200/200 
f 127/135/135 347/399/399 348/400/400 
f 349/401/401 350/402/402 253/403/403 
f 244/260/260 137/404/404 1/1/1 
f 137/404/404 200/210/210 199/209/209 
f 250/269/269 351/405/405 251/270/270 
f 330/374/374 331/376/376 250/269/269 
f 96/104/104 89/97/97 130/138/138 
f 307/336/336 306/335/335 102/110/110 
f 113/406/406 352/407/407 252/408/408 
f 116/124/124 3/3/3 113/406/406 
f 241/254/254 228/409/409 242/410/410 
f 60/411/411 217/228/228 58/412/412 
f 107/115/115 131/413/413 108/116/116 
f 96/104/104 131/139/139 353/414/414 
f 49/52/52 80/87/87 37/53/53 
f 49/52/52 61/68/68 80/87/87 
f 239/252/252 354/415/415 240/253/253 
f 224/236/236 223/416/416 222/380/380 
f 250/269/269 270/292/292 330/374/374 
f 330/374/374 270/292/292 267/375/375 
f 233/246/246 229/241/241 221/233/233 
f 221/370/370 229/242/242 231/244/244 
f 247/264/264 75/417/417 273/297/297 
f 75/417/417 247/264/264 263/284/284 
f 121/129/129 120/128/128 355/418/418 
f 355/418/418 199/209/209 201/211/211 
f 207/348/348 203/213/213 205/215/215 
f 207/217/217 356/419/419 208/218/218 
f 118/126/126 213/223/223 212/222/222 
f 355/418/418 201/211/211 121/129/129 
f 271/294/294 5/5/5 14/14/14 
f 5/5/5 271/294/294 357/420/420 
f 322/355/355 358/421/421 319/351/351 
f 358/421/421 318/350/350 319/351/351 
f 162/422/422 92/100/100 106/423/423 
f 164/173/173 163/172/172 313/424/424 
f 359/425/425 20/20/20 19/19/19 
f 360/426/426 70/427/427 69/428/428 
f 69/429/428 71/430/429 361/431/430 
f 360/426/426 69/429/428 361/431/430 
f 333/432/431 337/433/432 8/8/8 
f 342/393/393 334/434/433 333/432/431 
f 20/20/20 359/425/425 362/435/434 
f 362/435/434 18/18/18 20/20/20 
f 331/376/376 351/405/405 250/269/269 
f 267/289/289 269/291/291 331/436/435 
f 192/202/202 363/437/436 324/360/360 
f 363/437/436 192/202/202 260/281/281 
f 85/92/92 255/274/274 254/273/273 
f 124/132/132 150/438/437 325/439/438 
f 74/81/81 73/80/80 364/440/439 
f 365/441/440 366/442/441 10/10/10 
f 367/443/442 37/38/38 357/420/420 
f 367/443/442 357/420/420 271/294/294 
f 3/3/3 352/407/407 113/406/406 
f 2/2/2 368/444/443 3/3/3 
f 369/445/444 370/446/445 371/447/446 
f 11/11/11 372/448/447 371/447/446 
f 306/335/335 89/97/97 96/104/104 
f 90/98/98 89/97/97 306/335/335 
f 12/12/12 11/11/11 73/449/80 
f 73/449/80 11/11/11 371/447/446 
f 144/152/152 373/450/448 258/277/277 
f 258/277/277 158/285/285 144/152/152 
f 283/307/307 181/389/389 339/390/390 
f 180/189/189 175/184/184 181/190/190 
f 353/414/414 131/139/139 374/451/449 
f 375/452/450 238/251/251 94/102/102 
f 311/340/340 318/350/350 358/421/421 
f 311/340/340 332/379/379 318/350/350 
f 220/232/232 276/300/300 233/246/246 
f 42/43/43 41/42/42 220/232/232 
f 281/305/305 264/286/286 266/288/288 
f 176/185/185 175/184/184 180/189/189 
f 107/115/115 376/453/451 131/413/413 
f 377/454/452 378/455/453 379/456/454 
f 356/419/419 192/202/202 208/218/218 
f 192/202/202 324/360/360 380/457/455 
f 267/289/289 289/313/313 268/290/290 
f 289/377/377 267/375/375 270/292/292 
f 106/114/114 375/458/456 107/115/115 
f 381/459/457 107/115/115 375/458/456 
f 382/460/458 133/141/141 86/93/93 
f 133/141/141 132/140/140 136/144/144 
f 297/324/324 260/281/281 179/188/188 
f 179/188/188 260/281/281 192/202/202 
f 169/178/178 165/174/174 164/173/173 
f 165/174/174 104/112/112 112/120/120 
f 383/461/459 171/180/180 63/70/70 
f 63/70/70 62/69/69 384/462/460 
f 381/459/457 376/453/451 107/115/115 
f 381/463/461 377/454/452 379/456/454 
f 17/62/62 57/64/64 308/352/352 
f 17/17/17 308/337/337 15/15/15 
f 112/120/120 103/111/111 109/117/117 
f 245/261/261 109/117/117 103/111/111 
f 349/464/462 152/160/160 350/465/463 
f 85/92/92 152/160/160 255/274/274 
f 32/32/32 34/34/34 274/298/298 
f 34/466/464 33/94/94 294/321/321 
f 381/463/461 379/456/454 376/467/465 
f 385/468/466 353/414/414 374/451/449 
f 112/120/120 197/207/207 165/174/174 
f 109/117/117 197/207/207 112/120/120 
f 294/321/321 274/469/467 34/466/464 
f 294/321/321 295/470/468 274/469/467 
f 356/419/419 207/217/217 174/183/183 
f 177/186/186 174/183/183 176/185/185 
f 113/121/121 115/123/123 116/471/469 
f 115/123/123 84/91/91 116/471/469 
f 92/100/100 162/422/422 313/343/343 
f 93/101/101 92/100/100 313/343/343 
f 382/460/458 86/93/93 85/92/92 
f 382/460/458 85/92/92 254/273/273 
f 383/461/459 386/472/470 171/180/180 
f 386/472/470 257/276/276 256/275/275 
f 266/288/288 178/187/187 176/185/185 
f 180/189/189 266/288/288 176/185/185 
f 171/180/180 386/472/470 256/275/275 
f 171/180/180 154/162/162 153/161/161 
f 254/273/273 150/438/437 382/460/458 
f 253/272/272 150/438/437 254/273/273 
f 321/354/354 197/207/207 111/119/119 
f 195/205/205 314/344/344 196/206/206 
f 143/151/151 160/169/169 141/149/149 
f 243/259/259 139/147/147 138/146/146 
f 50/54/54 271/294/294 14/14/14 
f 78/85/85 50/60/60 14/366/366 
f 309/473/471 320/353/353 319/358/358 
f 320/353/353 309/473/471 308/352/352 
f 172/181/181 153/161/161 64/71/71 
f 153/257/257 143/151/151 64/256/256 
f 336/386/386 337/387/387 48/384/384 
f 338/474/472 336/386/386 345/397/397 
f 122/130/130 387/475/473 388/476/474 
f 127/135/135 387/475/473 122/130/130 
f 389/477/475 72/79/79 74/81/81 
f 369/445/444 366/442/441 370/446/445 
f 242/255/255 227/239/239 277/301/301 
f 233/246/246 276/300/300 277/301/301 
f 68/75/75 204/214/214 203/213/213 
f 315/345/345 191/201/201 68/75/75 
f 74/81/81 370/446/445 389/477/475 
f 74/81/81 364/440/439 370/446/445 
f 121/129/129 201/211/211 212/222/222 
f 212/222/222 210/220/220 121/129/129 
f 354/415/415 390/478/476 240/253/253 
f 235/248/248 45/47/47 44/46/46 
f 88/96/96 295/470/468 294/321/321 
f 88/394/394 296/323/323 295/322/322 
f 145/153/153 262/283/283 247/264/264 
f 262/283/283 145/153/153 144/152/152 
f 361/431/430 71/430/429 18/18/18 
f 18/18/18 360/426/426 361/431/430 
f 388/476/474 387/475/473 252/408/408 
f 350/465/463 152/160/160 252/271/271 
f 313/343/343 312/342/342 195/205/205 
f 195/205/205 312/342/342 314/344/344 
f 386/472/470 383/461/459 272/295/295 
f 273/296/296 272/295/295 384/462/460 
f 114/122/122 152/160/160 115/123/123 
f 152/160/160 114/122/122 252/271/271 
f 89/97/97 88/394/394 130/138/138 
f 130/227/227 88/96/96 216/226/226 
f 18/18/18 71/430/429 19/19/19 
f 359/479/477 19/480/478 71/78/78 
f 290/316/316 180/189/189 182/191/191 
f 180/189/189 281/305/305 266/288/288 
f 75/82/82 77/84/84 272/295/295 
f 173/182/182 272/295/295 77/84/84 
f 164/173/173 162/171/171 169/178/178 
f 313/424/424 162/171/171 164/173/173 
f 391/481/479 306/335/335 96/104/104 
f 95/103/103 391/481/479 96/104/104 
f 347/399/399 253/403/403 348/400/400 
f 151/159/159 150/158/158 253/403/403 
f 173/182/182 386/472/470 272/295/295 
f 156/164/164 257/276/276 386/472/470 
f 304/332/332 81/88/88 83/90/90 
f 222/234/234 82/89/89 81/88/88 
f 391/481/479 102/110/110 306/335/335 
f 100/108/108 102/110/110 392/482/480 
f 149/157/157 215/225/225 325/361/361 
f 209/219/219 211/221/221 149/157/157 
f 304/332/332 222/234/234 81/88/88 
f 222/380/380 304/381/381 225/237/237 
f 10/10/10 366/442/441 369/445/444 
f 10/10/10 372/448/447 11/11/11 
f 102/110/110 194/204/204 307/336/336 
f 194/204/204 196/206/206 307/336/336 
f 355/418/418 1/1/1 199/209/209 
f 1/1/1 137/404/404 199/209/209 
f 148/156/156 247/264/264 246/263/263 
f 148/156/156 246/263/263 147/155/155 
f 183/192/192 393/483/481 184/193/193 
f 278/302/302 284/308/308 285/484/482 
f 91/99/99 98/106/106 97/105/105 
f 97/105/105 236/249/249 237/250/250 
f 120/128/128 252/408/408 352/407/407 
f 2/2/2 120/128/128 368/444/443 
f 144/152/152 146/154/154 373/450/448 
f 146/154/154 160/169/169 140/148/148 
f 218/230/230 241/254/254 217/228/228 
f 58/412/412 217/228/228 241/254/254 
f 48/384/384 47/485/483 335/385/385 
f 335/385/385 344/486/484 345/397/397 
f 12/12/12 73/449/80 72/487/79 
f 72/79/79 389/477/475 365/488/440 
f 120/128/128 122/130/130 388/476/474 
f 120/128/128 388/476/474 252/408/408 
f 303/489/485 83/330/330 305/333/333 
f 226/238/238 234/247/247 305/333/333 
f 75/82/82 263/490/486 76/83/83 
f 263/490/486 158/166/166 157/165/165 
f 213/223/223 214/224/224 210/220/220 
f 213/223/223 118/126/126 117/125/125 
f 43/491/487 83/90/90 82/89/89 
f 82/89/89 239/492/488 43/491/487 
f 238/251/251 375/452/450 106/423/423 
f 92/100/100 238/251/251 106/423/423 
f 299/326/326 291/317/317 300/327/327 
f 291/317/317 282/306/306 281/305/305 
f 124/132/132 325/439/438 125/133/133 
f 215/225/225 125/362/362 325/361/361 
f 324/360/360 323/359/359 206/216/216 
f 324/360/360 206/216/216 380/457/455 
f 279/315/315 282/306/306 299/326/326 
f 282/306/306 291/317/317 299/326/326 
f 201/211/211 118/126/126 212/222/222 
f 394/493/489 201/211/211 200/210/210 
f 104/112/112 165/174/174 169/178/178 
f 105/113/113 104/112/112 169/178/178 
f 351/494/490 269/291/291 251/293/293 
f 351/494/490 331/436/435 269/291/291 
f 200/210/210 202/267/267 119/127/127 
f 394/493/489 200/210/210 119/127/127 
f 242/410/410 58/495/412 241/254/254 
f 58/65/65 242/255/255 59/66/66 
f 169/178/178 170/179/179 105/113/113 
f 170/179/179 108/116/116 129/137/137 
f 322/357/357 57/64/64 56/63/63 
f 57/64/64 322/357/357 320/353/353 
f 181/389/389 278/302/302 280/304/304 
f 182/496/491 181/389/389 280/304/304 
f 127/135/135 209/219/219 347/399/399 
f 149/157/157 151/159/159 209/219/219 
f 87/95/95 105/113/113 216/226/226 
f 129/137/137 105/113/113 170/179/179 
f 298/325/325 182/496/491 280/304/304 
f 298/497/492 301/328/328 300/327/327 
f 302/498/493 159/167/167 79/86/86 
f 302/498/493 79/86/86 293/319/319 
f 210/220/220 127/135/135 121/129/129 
f 127/135/135 210/220/220 209/219/219 
f 182/191/191 298/497/492 300/327/327 
f 291/317/317 182/191/191 300/327/327 
f 309/338/338 332/379/379 15/15/15 
f 332/379/379 16/16/16 15/15/15 
f 139/147/147 166/175/175 140/148/148 
f 155/258/258 166/175/175 139/147/147 
f 175/184/184 174/183/183 205/499/494 
f 174/183/183 207/217/217 205/499/494 
f 357/420/420 37/38/38 6/6/6 
f 5/5/5 357/420/420 6/6/6 
f 138/146/146 160/169/169 243/259/259 
f 140/148/148 160/169/169 138/146/146 
f 370/446/445 366/500/441 389/477/475 
f 365/488/440 389/477/475 366/500/441 
f 177/186/186 179/188/188 193/203/203 
f 356/419/419 193/203/203 192/202/202 
f 275/299/299 274/298/298 296/323/323 
f 89/97/97 343/395/395 296/323/323 
f 170/179/179 161/170/170 108/116/116 
f 161/170/170 106/114/114 108/116/116 
f 154/162/162 256/275/275 168/177/177 
f 154/162/162 171/180/180 256/275/275 
f 356/419/419 174/183/183 177/186/186 
f 193/203/203 356/419/419 177/186/186 
f 219/231/231 221/233/233 328/501/495 
f 328/369/369 395/502/496 329/371/371 
f 96/104/104 353/414/414 94/102/102 
f 375/452/450 94/102/102 378/455/453 
f 328/369/369 329/371/371 219/503/497 
f 219/231/231 42/43/43 220/232/232 
f 304/381/381 303/489/485 234/247/247 
f 305/333/333 234/247/247 303/489/485 
f 32/32/32 123/131/131 29/29/29 
f 123/131/131 32/32/32 275/299/299 
f 98/106/106 195/205/205 194/204/204 
f 396/504/498 313/343/343 195/205/205 
f 364/440/439 371/447/446 370/446/445 
f 73/449/80 371/447/446 364/505/439 
f 194/204/204 102/110/110 101/109/109 
f 98/106/106 194/204/204 397/506/499 
f 393/507/500 183/508/501 284/308/308 
f 66/73/73 393/507/500 284/308/308 
f 147/155/155 246/263/263 142/150/150 
f 246/263/263 64/256/256 142/150/150 
f 98/106/106 397/506/499 99/107/107 
f 397/506/499 194/204/204 101/109/109 
f 327/368/368 50/60/60 78/85/85 
f 35/35/35 50/60/60 61/68/68 
f 141/149/149 147/155/155 142/150/150 
f 141/149/149 160/169/169 147/155/155 
f 101/109/109 99/107/107 397/506/499 
f 101/109/109 97/105/105 99/107/107 
f 298/325/325 279/303/303 301/509/502 
f 301/328/328 279/315/315 299/326/326 
f 105/113/113 129/137/137 216/226/226 
f 216/226/226 129/137/137 128/136/136 
f 341/392/392 334/434/433 342/393/393 
f 46/48/48 48/50/50 334/434/433 
f 38/39/39 37/38/38 367/443/442 
f 38/39/39 24/24/24 39/40/40 
f 187/196/196 184/193/193 393/483/481 
f 178/187/187 184/193/193 297/324/324 
f 383/461/459 63/70/70 384/462/460 
f 383/461/459 384/462/460 272/295/295 
f 140/148/148 258/277/277 373/450/448 
f 146/154/154 140/148/148 373/450/448 
f 7/7/7 340/391/391 341/392/392 
f 7/7/7 9/9/9 340/391/391 
f 271/294/294 24/24/24 367/443/442 
f 24/24/24 38/39/39 367/443/442 
f 246/263/263 273/297/297 62/262/262 
f 384/462/460 62/69/69 273/296/296 
f 258/277/277 257/373/373 158/285/285 
f 257/276/276 156/164/164 158/166/166 
f 175/510/503 339/390/390 181/389/389 
f 205/215/215 204/214/214 175/510/503 
f 380/457/455 206/216/216 208/218/218 
f 208/218/218 192/202/202 380/457/455 
f 33/33/33 21/21/21 87/511/504 
f 87/95/95 245/261/261 103/111/111 
f 363/437/436 259/279/279 324/360/360 
f 259/279/279 261/282/282 190/280/280 
f 168/372/372 167/176/176 166/175/175 
f 167/176/176 168/372/372 258/277/277 
f 152/160/160 349/464/462 255/274/274 
f 255/274/274 349/464/462 253/272/272 
f 90/98/98 110/334/334 245/512/505 
f 110/334/334 90/98/98 306/335/335 
f 292/318/318 78/85/85 14/366/366 
f 79/86/86 78/85/85 292/318/318 
f 203/213/213 398/513/506 68/75/75 
f 203/213/213 207/348/348 317/347/347 
f 86/93/93 136/144/144 135/143/143 
f 86/93/93 133/141/141 136/144/144 
f 278/314/314 264/286/286 282/306/306 
f 264/286/286 278/314/314 285/309/309 
f 288/378/378 270/292/292 399/514/507 
f 251/270/270 288/378/378 399/514/507 
f 315/345/345 68/75/75 398/513/506 
f 398/513/506 203/213/213 317/347/347 
f 200/210/210 137/404/404 202/267/267 
f 137/145/145 136/144/144 202/212/212 
f 348/400/400 253/403/403 350/402/402 
f 350/402/402 252/408/408 387/475/473 
f 338/388/388 345/515/508 9/9/9 
f 9/9/9 345/515/508 344/396/396 
f 317/347/347 316/346/346 315/345/345 
f 317/347/347 315/345/345 398/513/506 
f 396/504/498 93/101/101 313/343/343 
f 396/504/498 195/205/205 98/106/106 
f 7/7/7 342/393/393 8/8/8 
f 342/393/393 333/432/431 8/8/8 
f 134/365/365 214/224/224 400/516/509 
f 213/223/223 400/516/509 214/224/224 
f 188/198/198 186/195/195 287/311/311 
f 287/311/311 346/517/510 190/280/280 
f 396/504/498 98/106/106 93/101/101 
f 93/101/101 98/106/106 91/99/99 
f 10/10/10 12/12/12 365/441/440 
f 72/79/79 365/488/440 12/518/12 
f 117/125/125 400/516/509 213/223/223 
f 400/516/509 117/125/125 134/365/365 
f 186/195/195 346/517/510 287/311/311 
f 346/398/398 67/74/74 68/75/75 
f 108/116/116 131/413/413 128/136/136 
f 130/138/138 128/519/511 131/139/139 
f 198/208/208 314/520/512 163/172/172 
f 198/208/208 163/172/172 165/174/174 
f 359/425/425 70/427/427 362/435/434 
f 70/77/77 359/479/477 71/78/78 
f 67/521/513 186/195/195 65/197/197 
f 346/517/510 186/195/195 67/521/513 
f 110/334/334 196/206/206 111/522/514 
f 321/523/515 111/522/514 196/206/206 
f 236/249/249 101/109/109 100/108/108 
f 236/249/249 95/103/103 94/102/102 
f 143/151/151 153/257/257 243/259/259 
f 143/151/151 243/259/259 160/169/169 
f 8/8/8 337/433/432 338/388/388 
f 336/386/386 338/474/472 337/387/387 
f 314/344/344 321/523/515 196/206/206 
f 321/354/354 314/520/512 198/208/208 
f 390/478/476 354/415/415 224/236/236 
f 354/415/415 239/252/252 224/236/236 
f 117/125/125 119/127/127 248/265/265 
f 119/127/127 202/267/267 248/265/265 
f 84/91/91 244/524/516 116/471/469 
f 86/93/93 135/143/143 84/91/91 
f 82/89/89 223/235/235 239/492/488 
f 224/236/236 239/252/252 223/416/416 
f 95/103/103 236/249/249 100/108/108 
f 392/482/480 95/103/103 100/108/108 
f 352/407/407 3/3/3 368/444/443 
f 368/444/443 120/128/128 352/407/407 
f 244/524/516 84/91/91 135/143/143 
f 137/145/145 244/524/516 135/143/143 
f 44/46/46 43/45/45 240/253/253 
f 44/46/46 240/253/253 390/478/476 
f 353/414/414 385/468/466 378/455/453 
f 378/455/453 94/102/102 353/414/414 
f 340/391/391 46/48/48 341/392/392 
f 334/434/433 341/392/392 46/48/48 
f 126/134/134 133/141/141 382/460/458 
f 134/142/142 133/141/141 126/134/134 
f 235/248/248 390/478/476 224/236/236 
f 235/248/248 44/46/46 390/478/476 
f 377/454/452 381/463/461 375/452/450 
f 377/454/452 375/452/450 378/455/453 
f 188/198/198 287/311/311 286/310/310 
f 286/310/310 261/282/282 188/198/198 
f 126/134/134 382/460/458 124/132/132 
f 124/132/132 382/460/458 150/438/437 
f 175/510/503 204/214/214 339/390/390 
f 204/214/214 68/75/75 339/390/390 
f 297/324/324 187/196/196 188/198/198 
f 187/196/196 297/324/324 184/193/193 
f 156/164/164 386/472/470 173/182/182 
f 76/83/83 156/164/164 173/182/182 
f 228/409/409 241/254/254 230/243/243 
f 230/243/243 229/242/242 228/409/409 
f 63/70/70 172/181/181 64/71/71 
f 171/180/180 172/181/181 63/70/70 
f 347/399/399 151/159/159 253/403/403 
f 151/159/159 347/399/399 209/219/219 
f 310/339/339 358/421/421 322/355/355 
f 311/340/340 358/421/421 310/339/339 
f 277/301/301 227/239/239 233/246/246 
f 227/239/239 229/241/241 233/246/246 
f 393/483/481 65/197/197 187/196/196 
f 65/72/72 393/507/500 66/73/73 
f 56/356/356 17/17/17 16/16/16 
f 310/339/339 56/356/356 16/16/16 
f 59/66/66 276/300/300 401/525/517 
f 41/42/42 40/41/41 232/245/245 
f 131/413/413 376/453/451 374/526/518 
f 374/451/449 376/467/465 379/456/454 
f 401/525/517 276/300/300 41/42/42 
f 276/300/300 220/232/232 41/42/42 
f 391/481/479 392/482/480 102/110/110 
f 95/103/103 392/482/480 391/481/479 
f 211/221/221 215/225/225 149/157/157 
f 215/225/225 211/221/221 210/220/220 
f 156/164/164 76/83/83 157/165/165 
f 76/83/83 263/490/486 157/165/165 
f 66/73/73 284/308/308 283/307/307 
f 66/73/73 283/307/307 68/75/75 
f 60/67/67 232/245/245 40/41/41 
f 217/228/228 60/411/411 40/229/229 
f 127/135/135 348/400/400 387/475/473 
f 387/475/473 348/400/400 350/402/402 
f 237/250/250 91/99/99 97/105/105 
f 92/100/100 91/99/99 237/250/250 
f 329/371/371 218/230/230 42/363/363 
f 42/363/363 219/503/497 329/371/371 
f 70/427/427 360/426/426 362/435/434 
f 362/435/434 360/426/426 18/18/18 
f 231/244/244 395/502/496 328/369/369 
f 326/364/364 329/371/371 395/502/496 
f 61/68/68 327/368/368 80/87/87 
f 327/368/368 61/68/68 50/60/60 
f 401/525/517 232/245/245 59/66/66 
f 401/525/517 41/42/42 232/245/245 
f 344/486/484 335/385/385 47/485/483 
f 47/49/49 340/391/391 344/396/396 
f 230/243/243 326/364/364 231/244/244 
f 326/364/364 395/502/496 231/244/244 
f 394/493/489 118/126/126 201/211/211 
f 118/126/126 394/493/489 119/127/127 
f 185/194/194 265/287/287 285/309/309 
f 265/287/287 185/194/194 178/187/187 
f 355/418/418 2/2/2 1/1/1 
f 355/418/418 120/128/128 2/2/2 
f 123/131/131 275/299/299 343/395/395 
f 343/395/395 275/299/299 296/323/323 
f 285/484/482 284/308/308 183/508/501 
f 185/194/194 285/309/309 183/192/192 
f 53/527/57 52/528/56 402/529/519 
f 403/530/520 54/58/58 53/57/57 
f 52/528/56 55/59/59 402/529/519 
f 402/529/519 403/530/520 53/527/57 
f 323/531/521 316/346/346 206/349/349 
f 316/346/346 189/199/199 191/201/201 
f 245/512/505 87/511/504 21/21/21 
f 90/98/98 245/512/505 21/21/21 
f 189/199/199 316/346/346 323/531/521 
f 189/278/278 323/359/359 259/279/279 
f 6/6/6 37/38/38 159/168/168 
f 159/167/167 37/53/53 80/87/87 
f 54/58/58 403/530/520 55/59/59 
f 55/59/59 403/530/520 402/529/519 
f 372/448/447 369/445/444 371/447/446 
f 372/448/447 10/10/10 369/445/444 
f 281/305/305 180/189/189 290/316/316 
f 291/317/317 281/305/305 290/316/316 
f 378/455/453 385/468/466 379/456/454 
f 379/456/454 385/468/466 374/451/449 
f 260/281/281 261/282/282 363/437/436 
f 363/437/436 261/282/282 259/279/279 
f 27/27/27 51/55/55 25/25/25 
f 51/61/61 36/37/37 25/36/36 
f 39/51/51 26/44/44 35/35/35 
f 49/52/52 39/51/51 35/35/35 
f 39/40/40 24/24/24 26/26/26 
f 251/270/270 399/514/507 249/268/268 
f 399/514/507 270/292/292 249/268/268 
# 752 faces

